<svg width="17" height="24" viewBox="0 0 17 24" fill="none" xmlns="http://www.w3.org/2000/svg">
<path d="M16.5758 23.3851H0.428019C0.33438 23.3851 0.244841 23.3465 0.180592 23.2782C0.116342 23.2098 0.0821673 23.1181 0.0862683 23.0236L0.855208 6.72439C0.864094 6.54019 1.01378 6.396 1.19696 6.396H15.8068C15.9893 6.396 16.1397 6.54019 16.1486 6.72439L16.9175 23.0236C16.9216 23.1181 16.8881 23.2098 16.8232 23.2782C16.7583 23.3465 16.6687 23.3851 16.5758 23.3851ZM0.786174 22.6952H16.2169L15.4808 7.08591H1.52231L0.786174 22.6952Z" fill="#828C90"/>
<path d="M12.1943 8.4658C12.0056 8.4658 11.8525 8.31126 11.8525 8.12085V4.69198C11.8525 2.82645 10.3488 1.30796 8.49994 1.30796C6.65107 1.30796 5.14737 2.82645 5.14737 4.69198V8.12085C5.14737 8.31126 4.99426 8.4658 4.80562 8.4658C4.61697 8.4658 4.46387 8.31126 4.46387 8.12085V4.69198C4.46387 2.44562 6.27446 0.618042 8.49994 0.618042C10.7254 0.618042 12.536 2.44562 12.536 4.69198V8.12085C12.536 8.31126 12.3836 8.4658 12.1943 8.4658Z" fill="#828C90"/>
</svg>
