<svg width="18" height="15" viewBox="0 0 18 15" fill="none" xmlns="http://www.w3.org/2000/svg">
<path d="M8.65797 3.1889L8.23202 2.49588C7.49591 1.29822 6.17994 0.5 4.67562 0.5C2.36924 0.5 0.5 2.3696 0.5 4.67611C0.5 5.93081 1.05527 7.05365 1.93374 7.81998L1.94658 7.83118L1.95862 7.84322L8.58483 14.4697C8.58483 14.4697 8.58483 14.4697 8.58484 14.4697C8.60422 14.4891 8.63051 14.5 8.65799 14.5L8.65797 3.1889ZM8.65797 3.1889L9.08395 2.4959C9.82021 1.29815 11.1356 0.5 12.6399 0.5C14.9463 0.5 16.8161 2.36968 16.8161 4.67611C16.8161 5.93079 16.2608 7.05363 15.3822 7.81997L15.3694 7.83117L15.3574 7.84322L8.73116 14.4697L8.65797 3.1889Z" fill="#A3A3A3" stroke="#A3A3A3"/>
</svg>
