<svg width="23" height="20" viewBox="0 0 23 20" fill="none" xmlns="http://www.w3.org/2000/svg">
<path d="M11.0157 3.60974L11.4428 4.31104L11.8698 3.60977C12.8082 2.06889 14.4837 1.04346 16.398 1.04346C19.3314 1.04346 21.7173 3.44491 21.7173 6.41719C21.7173 8.0337 21.0082 9.47909 19.8893 10.4643L19.8765 10.4755L19.8645 10.4876L11.6186 18.8113C11.5712 18.8591 11.5079 18.8852 11.4428 18.8852C11.3777 18.8852 11.3144 18.8591 11.267 18.8113L3.02106 10.4876L3.00907 10.4755L2.99628 10.4643C1.87745 9.47911 1.16846 8.03372 1.16846 6.41719C1.16846 3.44483 3.55371 1.04346 6.48699 1.04346C8.4013 1.04346 10.0775 2.06896 11.0157 3.60974Z" stroke="#828C90"/>
</svg>
