<svg width="15" height="16" viewBox="0 0 15 16" fill="none" xmlns="http://www.w3.org/2000/svg">
<path d="M10.733 15.7324H4.12782C1.88472 15.7324 0.0598145 13.8904 0.0598145 11.6264V4.95956C0.0598145 2.69545 1.88472 0.853516 4.12782 0.853516H10.733C12.9763 0.853516 14.8012 2.69553 14.8012 4.95956V11.6264C14.8013 13.8904 12.9763 15.7324 10.733 15.7324ZM13.4934 4.95956C13.4934 3.42337 12.2551 2.17364 10.7331 2.17364H4.12782C2.60591 2.17356 1.36774 3.42337 1.36774 4.95956V11.6264C1.36774 13.1625 2.60591 14.4123 4.12782 14.4123H10.733C12.255 14.4123 13.4933 13.1625 13.4933 11.6264V4.95956H13.4934Z" fill="#444546"/>
<path d="M7.43082 12.1277C5.3363 12.1277 3.63232 10.4078 3.63232 8.29361C3.63232 6.17956 5.3363 4.45972 7.43082 4.45972C9.52534 4.45972 11.2293 6.17956 11.2293 8.29361C11.2293 10.4078 9.52534 12.1277 7.43082 12.1277ZM7.43082 5.77999C6.05758 5.77999 4.94026 6.9076 4.94026 8.2937C4.94026 9.67989 6.05749 10.8076 7.43082 10.8076C8.80414 10.8076 9.92138 9.67989 9.92138 8.2937C9.92138 6.9076 8.80406 5.77999 7.43082 5.77999Z" fill="#444546"/>
<path d="M11.3881 13.2471C11.1361 13.2471 10.8886 13.1441 10.7106 12.9637C10.5318 12.7841 10.429 12.5342 10.429 12.2789C10.429 12.0245 10.5318 11.7746 10.7106 11.5942C10.8885 11.4146 11.1361 11.3108 11.3881 11.3108C11.641 11.3108 11.8877 11.4146 12.0665 11.5942C12.2452 11.7746 12.3473 12.0246 12.3473 12.2789C12.3473 12.5342 12.2452 12.7841 12.0665 12.9637C11.8886 13.1441 11.641 13.2471 11.3881 13.2471Z" fill="#444546"/>
</svg>
