<svg width="16" height="16" viewBox="0 0 16 16" fill="none" xmlns="http://www.w3.org/2000/svg">
<path d="M15.5108 14.2119L11.7357 10.534C12.6715 9.42257 13.2355 7.99888 13.2355 6.44718C13.2355 2.88796 10.2711 0 6.61775 0C2.96116 0 0 2.88796 0 6.44718C0 10.0064 2.96116 12.8944 6.61775 12.8944C8.21049 12.8944 9.66864 12.348 10.8095 11.4363L14.5847 15.1111C14.8411 15.3608 15.2545 15.3608 15.5108 15.1111C15.7672 14.8644 15.7672 14.4586 15.5108 14.2119ZM6.61775 11.6112C3.69184 11.6112 1.31393 9.29456 1.31393 6.44718C1.31393 3.59981 3.69184 1.28007 6.61775 1.28007C9.54045 1.28007 11.9216 3.59981 11.9216 6.44718C11.9216 9.29456 9.54045 11.6112 6.61775 11.6112Z" fill="white"/>
</svg>
