<svg width="14" height="13" viewBox="0 0 14 13" fill="none" xmlns="http://www.w3.org/2000/svg">
<path d="M13.2577 11.5081L10.0309 8.55257C10.8308 7.65939 11.3129 6.51531 11.3129 5.26837C11.3129 2.40817 8.77912 0.0874023 5.65644 0.0874023C2.53102 0.0874023 0 2.40817 0 5.26837C0 8.12856 2.53102 10.4493 5.65644 10.4493C7.01782 10.4493 8.26415 10.0103 9.23931 9.27765L12.4661 12.2307C12.6852 12.4314 13.0386 12.4314 13.2577 12.2307C13.4768 12.0325 13.4768 11.7063 13.2577 11.5081ZM5.65644 9.41815C3.15555 9.41815 1.12307 7.55652 1.12307 5.26837C1.12307 2.98021 3.15555 1.11607 5.65644 1.11607C8.15458 1.11607 10.1898 2.98021 10.1898 5.26837C10.1898 7.55652 8.15458 9.41815 5.65644 9.41815Z" fill="#B8BEC3"/>
</svg>
