<svg width="54" height="45" viewBox="0 0 54 45" fill="none" xmlns="http://www.w3.org/2000/svg">
<path d="M28.7903 30.5904H43.1858C43.7256 30.5904 44.0855 30.2306 44.0855 29.6908V21.5933C44.0855 21.0535 43.7256 20.6936 43.1858 20.6936H28.7903C28.2505 20.6936 27.8906 21.0535 27.8906 21.5933V29.6908C27.8905 30.2305 28.2505 30.5904 28.7903 30.5904ZM29.69 22.493H42.2861V28.791H29.69V22.493Z" fill="#6C7884"/>
<path d="M4.49636 18.894H11.6941C12.234 18.894 12.5938 18.5342 12.5938 17.9943C12.5938 17.4545 12.234 17.0947 11.6941 17.0947H4.49636C3.95653 17.0947 3.59668 17.4545 3.59668 17.9943C3.59668 18.5342 3.95653 18.894 4.49636 18.894Z" fill="#6C7884"/>
<path d="M15.2913 18.894H22.4891C23.0289 18.894 23.3888 18.5342 23.3888 17.9943C23.3888 17.4545 23.0289 17.0947 22.4891 17.0947H15.2913C14.7515 17.0947 14.3916 17.4545 14.3916 17.9943C14.3916 18.5342 14.7515 18.894 15.2913 18.894Z" fill="#6C7884"/>
<path d="M4.49636 22.493H16.1927C16.7325 22.493 17.0924 22.1331 17.0924 21.5933C17.0924 21.0535 16.7325 20.6936 16.1927 20.6936H4.49636C3.95653 20.6936 3.59668 21.0535 3.59668 21.5933C3.59668 22.1331 3.95653 22.493 4.49636 22.493Z" fill="#6C7884"/>
<path d="M22.4953 20.6935H19.7962C19.2563 20.6935 18.8965 21.0533 18.8965 21.5932C18.8965 22.133 19.2563 22.4929 19.7962 22.4929H22.4953C23.0352 22.4929 23.395 22.133 23.395 21.5932C23.395 21.0533 23.0352 20.6935 22.4953 20.6935Z" fill="#6C7884"/>
<path d="M53.1734 9.53699C52.5436 8.72724 51.7339 8.27734 50.7442 8.18741L48.5848 7.92572V5.39821V3.59884C48.5848 1.61949 46.9653 5.14794e-09 44.986 5.14794e-09H3.59884C1.61949 -0.000105431 0 1.61939 0 3.59884V5.39831V12.5961V32.3899C0 34.015 1.092 35.3967 2.57822 35.8395C2.53288 37.6596 3.90998 39.2396 5.75827 39.4077L47.3253 44.0862C47.4152 44.0862 47.5952 44.0862 47.6851 44.0862C49.4846 44.0862 51.1041 42.7366 51.284 41.0272L53.9831 12.1462C54.0731 11.2464 53.8032 10.2567 53.1734 9.53699ZM1.79947 6.298H46.7855V8.6373V11.6963H1.79947V6.298ZM3.59884 1.79937H44.9859C45.9756 1.79937 46.7854 2.60912 46.7854 3.59884V4.49852H1.79947V3.59884C1.79947 2.60912 2.60922 1.79937 3.59884 1.79937ZM1.79947 32.3898V13.4957H46.7855V32.3898C46.7855 33.3795 45.9757 34.1893 44.986 34.1893H3.68888H3.59895C2.60922 34.1893 1.79947 33.3795 1.79947 32.3898ZM52.1837 11.7862L49.4845 40.6672C49.3946 41.657 48.4948 42.3767 47.5052 42.2867L6.02808 37.6082C5.1284 37.5183 4.49852 36.7985 4.40859 35.9887H44.9859C46.9652 35.9887 48.5847 34.3692 48.5847 32.3899V12.596V9.62692L50.6541 9.8069C51.104 9.8069 51.5538 10.0768 51.8237 10.4367C52.0937 10.7965 52.2737 11.3364 52.1837 11.7862Z" fill="#6C7884"/>
</svg>
