<svg width="57" height="60" viewBox="0 0 57 60" fill="none" xmlns="http://www.w3.org/2000/svg">
<path d="M55.7457 13.2388L28.5034 0.0873632C28.2618 -0.0291211 27.9806 -0.0291211 27.7392 0.0873632L0.496757 13.2388C0.193008 13.3854 0 13.6931 0 14.0303V45.9696C0 46.3069 0.193008 46.6145 0.496757 46.7611L27.7391 59.9126C27.8598 59.9708 27.9906 60 28.1212 60C28.2519 60 28.3825 59.9708 28.5034 59.9126L55.7457 46.7611C56.0494 46.6145 56.2424 46.3069 56.2424 45.9696V14.0304C56.2424 13.6929 56.0493 13.3856 55.7457 13.2388ZM28.1212 1.8549L53.3419 14.0303L46.031 17.5598C45.9847 17.5245 45.9358 17.4919 45.8821 17.466L20.8328 5.37345L28.1212 1.8549ZM18.8478 6.3672L44.0319 18.5249L38.8739 21.015L13.7003 8.86224L18.8478 6.3672ZM44.6211 20.1923V29.3969L39.8032 31.7228V22.5182L44.6211 20.1923ZM54.4846 45.4181L29.0001 57.7207V27.7334L35.079 24.7988C35.5161 24.5877 35.6994 24.0624 35.4883 23.6252C35.2773 23.1882 34.7519 23.0046 34.3147 23.2158L28.1212 26.2059L25.6842 25.0293C25.247 24.818 24.7216 25.0015 24.5106 25.4386C24.2995 25.8757 24.4828 26.4012 24.9199 26.6123L27.2423 27.7334V57.7207L1.75781 45.4179V15.4306L21.164 24.7991C21.2872 24.8587 21.4174 24.8868 21.5455 24.8868C21.8722 24.8868 22.186 24.7037 22.3376 24.3898C22.5486 23.9527 22.3653 23.4272 21.9282 23.2162L2.90051 14.0303L11.6316 9.81532L38.0332 22.561C38.037 22.5664 38.0414 22.5712 38.0453 22.5764V33.1232C38.0453 33.4257 38.2009 33.7068 38.457 33.8677C38.5993 33.957 38.7616 34.0021 38.9244 34.0021C39.0547 34.0021 39.1853 33.9731 39.3064 33.9147L45.8821 30.7402C46.1859 30.5936 46.3789 30.2861 46.3789 29.9487V19.3438L54.4846 15.4307V45.4181Z" fill="#6C7884"/>
</svg>
