<svg width="41" height="48" viewBox="0 0 41 48" fill="none" xmlns="http://www.w3.org/2000/svg">
<path d="M39.4942 8.14467C33.0046 6.36652 26.4769 3.59777 20.6167 0.137838C20.3055 -0.0459461 19.9192 -0.0459461 19.608 0.137838C13.5788 3.69718 7.40379 6.31613 0.729979 8.14467C0.298845 8.26267 0 8.65456 0 9.10163V19.2393C0 29.6789 4.81607 36.5892 8.85638 40.5478C13.206 44.8099 18.2728 47.1668 20.1124 47.1668C21.9518 47.1668 27.0185 44.8099 31.3682 40.5478C35.4084 36.5893 40.2242 29.679 40.2242 19.2393V9.10154C40.2242 8.65456 39.9253 8.26267 39.4942 8.14467ZM38.2399 19.2393C38.2399 28.9898 33.7479 35.4379 29.9793 39.1303C25.702 43.3215 21.1288 45.1823 20.1124 45.1823C19.096 45.1823 14.5225 43.3215 10.245 39.1303C6.47658 35.4378 1.98441 28.9898 1.98441 19.2393V9.85474C8.36647 8.04269 14.31 5.51383 20.1126 2.14187C25.7702 5.42438 32.0103 8.07898 38.2399 9.85437V19.2393Z" fill="#6C7884"/>
<path d="M11.3199 9.7438C11.1191 9.23391 10.543 8.98343 10.033 9.18434C8.2606 9.88273 6.44137 10.5256 4.62591 11.0951C4.21219 11.2249 3.93066 11.6082 3.93066 12.0417V15.8732C3.93066 16.4211 4.37497 16.8653 4.92282 16.8653C5.47068 16.8653 5.91498 16.4211 5.91498 15.8732V12.7668C7.54362 12.2399 9.1705 11.657 10.7604 11.0305C11.2703 10.8297 11.5208 10.2537 11.3199 9.7438Z" fill="#6C7884"/>
<path d="M13.2015 9.93191C13.3346 9.93191 13.4697 9.9051 13.5993 9.84854L13.6176 9.84062C14.1196 9.62063 14.3456 9.03629 14.1256 8.5345C13.9055 8.03253 13.3178 7.80545 12.8164 8.02525L12.8004 8.03216C12.2981 8.2515 12.0713 8.83538 12.2906 9.33744C12.4534 9.71017 12.8187 9.93191 13.2015 9.93191Z" fill="#6C7884"/>
<path d="M31.9352 31.9926C31.4767 31.6929 30.8619 31.8218 30.5619 32.2805C29.7443 33.5319 28.7851 34.7302 27.7106 35.8418C26.827 36.7559 25.8694 37.6078 24.8647 38.3738C24.429 38.706 24.3452 39.3286 24.6773 39.7644C24.8727 40.0204 25.1681 40.1551 25.4669 40.1551C25.6768 40.1551 25.8882 40.0889 26.0679 39.9518C27.1517 39.1254 28.1844 38.2066 29.1371 37.2211C30.2989 36.0195 31.3371 34.7224 32.2231 33.3659C32.523 32.9071 32.3939 32.2923 31.9352 31.9926Z" fill="#6C7884"/>
<path d="M22.5576 39.9298L22.5007 39.9634C22.0265 40.238 21.8645 40.8449 22.139 41.319C22.323 41.6369 22.656 41.8143 22.9986 41.8143C23.1672 41.8143 23.3383 41.7713 23.4947 41.6805L23.5604 41.6419C24.0332 41.365 24.192 40.7573 23.9151 40.2844C23.638 39.8117 23.0302 39.6532 22.5576 39.9298Z" fill="#6C7884"/>
<path d="M13.3497 21.5584C12.7405 20.9491 11.9303 20.6138 11.0686 20.6138C10.2069 20.6138 9.39654 20.9492 8.78706 21.5584C7.52931 22.8165 7.52931 24.8634 8.78706 26.1214L14.6457 31.9798C15.255 32.5889 16.0652 32.9243 16.927 32.9243C17.7888 32.9243 18.599 32.5889 19.2084 31.9796L31.4387 19.7492C32.6963 18.4909 32.6963 16.4443 31.4385 15.1867C30.8292 14.5774 30.019 14.2421 29.1571 14.2421C28.2953 14.2421 27.4851 14.5775 26.8757 15.1867L16.9269 25.1355L13.3497 21.5584ZM28.2789 16.5899C28.5133 16.3554 28.8254 16.2264 29.1572 16.2264C29.4892 16.2264 29.8009 16.3554 30.0356 16.5899C30.5197 17.074 30.5197 17.862 30.0354 18.3463L17.8053 30.5765C17.5708 30.8109 17.2588 30.94 16.927 30.94C16.5952 30.94 16.2832 30.8109 16.0486 30.5765L10.1902 24.7182C9.70589 24.2339 9.70589 23.4459 10.19 22.9618C10.4245 22.7274 10.7366 22.5981 11.0685 22.5981C11.4004 22.5981 11.7122 22.7272 11.9467 22.9616L16.2253 27.2404C16.4115 27.4264 16.6637 27.5309 16.9269 27.5309C17.1901 27.5309 17.4423 27.4265 17.6283 27.2404L28.2789 16.5899Z" fill="#6C7884"/>
</svg>
