<svg width="56" height="47" viewBox="0 0 56 47" fill="none" xmlns="http://www.w3.org/2000/svg">
<path d="M21.4665 0H0V10.2667H1.86663V46.6667H54.1332V10.2667H55.9998V0H21.4665ZM32.6667 1.86663V8.40006H23.3331V1.86663H32.6667ZM23.3331 10.2667H32.6667V14.123L30.6813 12.7985L27.9999 15.4804L25.3185 12.7985L23.3331 14.123V10.2667ZM1.86663 1.86663H21.4665V8.40006H1.86663V1.86663ZM23.3331 44.8V38.1436L25.3185 39.468L27.9999 36.7862L30.6813 39.468L32.6667 38.1436V44.8H23.3331ZM52.2666 44.8H34.5333V34.6564L30.9184 37.0652L27.9999 34.1467L25.0814 37.0652L21.4665 34.6564V44.8H3.73326V10.2667H21.4665V17.6102L25.0814 15.2009L27.9999 18.1195L30.9184 15.2009L34.5333 17.6102V10.2667H52.2666V44.8ZM54.1332 1.86663V8.40006H34.5333V1.86663H54.1332Z" fill="#6C7884"/>
<path d="M18.6658 20.5333L20.159 19.4131L19.0392 17.9199L14.3101 21.4664L19.0392 25.013L20.159 23.5198L18.6658 22.3999H35.9325C38.252 22.3999 40.1323 24.2803 40.1323 26.5998C40.1323 28.9193 38.252 30.8 35.9325 30.8H15.8657V32.6666H35.9321C39.2829 32.6666 41.9989 29.9502 41.9989 26.5998C41.9989 23.2493 39.2829 20.5333 35.9321 20.5333H18.6658Z" fill="#6C7884"/>
</svg>
