<svg width="19" height="16" viewBox="0 0 19 16" fill="none" xmlns="http://www.w3.org/2000/svg">
<path d="M18.4186 2.61479C17.7514 2.91342 17.0337 3.1154 16.281 3.20561C17.0495 2.74086 17.6393 2.00549 17.9176 1.12781C17.1985 1.55838 16.4017 1.87074 15.5544 2.0391C14.8755 1.30934 13.9083 0.853271 12.8373 0.853271C10.7824 0.853271 9.11581 2.53551 9.11581 4.60967C9.11581 4.9041 9.14883 5.19068 9.21267 5.46578C6.11979 5.30918 3.37745 3.81379 1.54181 1.54045C1.22154 2.09513 1.03781 2.74086 1.03781 3.42916C1.03781 4.73209 1.69529 5.88235 2.69332 6.5558C2.08357 6.53647 1.50934 6.36755 1.00783 6.08545C1.00755 6.10142 1.00755 6.11738 1.00755 6.13307C1.00755 7.95314 2.29089 9.47122 3.99302 9.81607C3.68107 9.90236 3.35163 9.94802 3.01276 9.94802C2.77241 9.94802 2.53956 9.92477 2.31254 9.88106C2.78601 11.3731 4.1601 12.4592 5.78897 12.4897C4.51507 13.4974 2.91063 14.0977 1.16658 14.0977C0.866843 14.0977 0.569878 14.0801 0.279297 14.0451C1.92537 15.1113 3.88201 15.7329 5.98352 15.7329C12.8287 15.7329 16.5721 10.0091 16.5721 5.04473C16.5721 4.88197 16.5685 4.71976 16.5613 4.55896C17.289 4.0295 17.9198 3.36809 18.4186 2.61479Z" fill="#444546"/>
</svg>
