<svg width="19" height="20" viewBox="0 0 19 20" fill="none" xmlns="http://www.w3.org/2000/svg">
<path d="M9.42029 9.49288C12.4138 9.49288 14.8406 7.36794 14.8406 4.74644C14.8406 2.12508 12.4138 0 9.42029 0C6.42678 0 4 2.12508 4 4.74644C4.00289 7.36696 6.4279 9.49035 9.42029 9.49288ZM9.42029 0.898074C11.8475 0.898074 13.815 2.62122 13.815 4.74644C13.815 6.87194 11.8475 8.59481 9.42029 8.59481C6.99319 8.59481 5.02573 6.87194 5.02573 4.74644C5.02846 2.62206 6.99431 0.900601 9.42029 0.898074Z" fill="#828C90"/>
<mask id="path-2-inside-1_564_9" fill="white">
<path fill-rule="evenodd" clip-rule="evenodd" d="M0 19.6788H18.4086C17.668 14.8232 13.8289 11.1233 9.20429 11.1233C4.57963 11.1233 0.740566 14.8232 0 19.6788Z"/>
</mask>
<path d="M0 19.6788L-0.988568 19.5281C-1.03253 19.8163 -0.948518 20.1093 -0.758542 20.3305C-0.568567 20.5516 -0.291542 20.6788 0 20.6788V19.6788ZM18.4086 19.6788V20.6788C18.7001 20.6788 18.9771 20.5516 19.1671 20.3305C19.3571 20.1093 19.4411 19.8163 19.3971 19.5281L18.4086 19.6788ZM0 20.6788H18.4086V18.6788H0V20.6788ZM9.20429 12.1233C13.2586 12.1233 16.7418 15.383 17.42 19.8296L19.3971 19.5281C18.5942 14.2634 14.3993 10.1233 9.20429 10.1233V12.1233ZM0.988568 19.8296C1.66675 15.383 5.14993 12.1233 9.20429 12.1233V10.1233C4.00932 10.1233 -0.185618 14.2634 -0.988568 19.5281L0.988568 19.8296Z" fill="#828C90" mask="url(#path-2-inside-1_564_9)"/>
</svg>
