<svg width="36" height="22" viewBox="0 0 36 22" fill="none" xmlns="http://www.w3.org/2000/svg">
<rect width="36" height="22" rx="2" fill="white"/>
<path d="M14.8252 13.6413L15.8614 7.52271H17.539L16.5028 13.6413H14.8252Z" fill="#293688"/>
<path d="M22.4749 7.68112C22.1425 7.55712 21.6216 7.42432 20.9711 7.42432C19.3132 7.42432 18.1453 8.25439 18.1353 9.4436C18.1261 10.3226 18.9689 10.8129 19.6057 11.1058C20.2587 11.4051 20.4783 11.5972 20.4751 11.8647C20.471 12.2748 19.9534 12.4623 19.471 12.4623C18.7996 12.4621 18.4428 12.3695 17.8917 12.1411L17.6755 12.0436L17.4399 13.4134C17.8319 13.5842 18.5567 13.7324 19.3091 13.7399C21.0725 13.7395 22.2177 12.9197 22.2305 11.6494C22.2369 10.9535 21.7898 10.4238 20.8219 9.98698C20.2354 9.70429 19.8762 9.51549 19.88 9.22857C19.88 8.97434 20.1843 8.70239 20.8409 8.70239C21.3895 8.69382 21.787 8.81274 22.0969 8.93674L22.247 9.00731L22.4749 7.68112Z" fill="#293688"/>
<path d="M25.3352 7.52271C24.9333 7.52271 24.6429 7.64545 24.4662 8.0438L21.98 13.6415H23.7562L24.1015 12.7039H26.2236L26.4208 13.6415H27.9998L26.6184 7.52288H25.3353L25.3352 7.52271ZM24.5728 11.4796C24.7113 11.1273 25.2409 9.76948 25.2409 9.76948C25.2313 9.78554 25.3788 9.41542 25.4635 9.18576L25.5771 9.71303C25.5771 9.71303 25.898 11.1736 25.9654 11.4798H24.5728V11.4796Z" fill="#293688"/>
<path d="M11.7659 11.7169L11.6181 10.8781C11.3119 9.90034 10.3617 8.84238 9.29688 8.31232L10.7791 13.6413H12.5557L15.2201 7.52271H13.4439L11.7659 11.7169Z" fill="#293688"/>
<path d="M7.38477 7.42432V7.53038C9.57996 8.07389 11.104 9.44794 11.7073 11.0265L11.073 7.98488C10.9671 7.56921 10.6462 7.43879 10.2665 7.42438L7.38477 7.42432Z" fill="#F7981D"/>
</svg>
