<svg width="36" height="22" viewBox="0 0 36 22" fill="none" xmlns="http://www.w3.org/2000/svg">
<rect width="36" height="22" rx="2" fill="#666EE7"/>
<path d="M17.2148 9.56592C17.2148 10.8142 17.2148 12.056 17.2148 13.3111C17.7156 13.3111 18.2072 13.3111 18.7047 13.3111C18.7047 12.0603 18.7047 10.8145 18.7047 9.56592C18.2051 9.56592 17.7148 9.56592 17.2148 9.56592Z" fill="white"/>
<path d="M16.7244 9.52771C16.2543 9.41606 15.9755 9.51582 15.6991 9.9073C15.6442 9.81943 15.5861 9.73659 15.5401 9.64872C15.5045 9.58029 15.4553 9.55688 15.371 9.55796C15.0469 9.56264 14.7233 9.55976 14.3996 9.56048C14.3658 9.56048 14.3315 9.56624 14.3008 9.56984C14.3008 10.8232 14.3008 12.0664 14.3008 13.3082C14.8024 13.3082 15.2923 13.3082 15.7967 13.3082C15.7967 13.2574 15.7967 13.2138 15.7967 13.1699C15.7967 12.4409 15.7967 11.7134 15.7967 10.9852C15.7967 10.7108 15.8391 10.6669 16.151 10.6305C16.2277 10.6218 16.3064 10.6172 16.3826 10.6229C16.532 10.6355 16.6801 10.6553 16.8475 10.6741C16.8475 10.3337 16.8439 10.0006 16.8499 9.66744C16.8512 9.57957 16.8128 9.5486 16.7244 9.52771Z" fill="white"/>
<path d="M10.4912 11.2328C10.3455 11.1384 10.1756 11.0725 10.0154 10.9969C9.89114 10.9374 9.75313 10.8957 9.64336 10.82C9.58364 10.7797 9.53602 10.6796 9.54732 10.6151C9.55741 10.5607 9.65224 10.4948 9.72286 10.4782C9.82011 10.4548 9.9319 10.4613 10.034 10.4746C10.2854 10.5085 10.5344 10.5532 10.7939 10.5957C10.7939 10.323 10.7898 10.0468 10.7963 9.77056C10.7983 9.6906 10.7664 9.65711 10.6849 9.6337C10.1764 9.48784 9.65829 9.44642 9.1345 9.54186C8.64258 9.63118 8.26769 9.85627 8.12403 10.3137C8.09336 10.4098 8.07884 10.5107 8.05664 10.6086C8.05664 10.6821 8.05664 10.7552 8.05664 10.8283C8.06511 10.8557 8.07762 10.8823 8.08166 10.9097C8.12444 11.2043 8.28141 11.4409 8.55057 11.6109C8.68738 11.6963 8.84233 11.7597 8.99003 11.8306C9.11755 11.8925 9.25153 11.9462 9.3742 12.0143C9.46702 12.0661 9.51383 12.1619 9.46338 12.2476C9.42747 12.3089 9.33869 12.3741 9.26444 12.3834C9.1232 12.4018 8.97308 12.396 8.83063 12.3759C8.60021 12.3445 8.37302 12.2927 8.1321 12.2484C8.1321 12.5567 8.12887 12.8538 8.13654 13.1495C8.13735 13.179 8.19627 13.2247 8.23702 13.2341C8.70957 13.3529 9.18817 13.4113 9.6817 13.3709C10.442 13.3094 10.8657 12.9564 10.9448 12.2829C10.9936 11.8684 10.8915 11.4928 10.4912 11.2328Z" fill="white"/>
<path d="M13.1802 12.1512C13.1749 12.1116 13.1753 12.0691 13.1753 12.0291C13.1749 11.5328 13.1749 11.0362 13.1753 10.5399C13.1753 10.5014 13.1802 10.4625 13.183 10.4142C13.3868 10.4142 13.5768 10.4142 13.7718 10.4142C13.8379 10.1276 13.9021 9.84988 13.9699 9.55708C13.6987 9.55708 13.4413 9.55708 13.1709 9.55708C13.1709 9.17532 13.1709 8.80797 13.1709 8.43018C12.7625 8.51769 12.3703 8.60593 11.9756 8.68516C11.8775 8.70425 11.8469 8.74855 11.8303 8.8303C11.7815 9.07304 11.723 9.31434 11.6661 9.565C11.478 9.565 11.3025 9.565 11.127 9.565C11.127 9.85492 11.127 10.133 11.127 10.4196C11.3102 10.4196 11.4821 10.4196 11.6685 10.4196C11.6685 10.4733 11.6685 10.5161 11.6685 10.5597C11.6689 11.1666 11.6641 11.772 11.6709 12.3788C11.677 12.8942 11.934 13.2371 12.3997 13.3368C12.9271 13.4524 13.4453 13.3527 13.9626 13.268C13.9626 12.9439 13.9626 12.6353 13.9626 12.3151C13.7847 12.3331 13.6225 12.3551 13.459 12.3637C13.2714 12.3734 13.2024 12.3169 13.1802 12.1512Z" fill="white"/>
<path d="M18.0546 7.75553C18.0509 7.75337 18.0477 7.75229 18.0437 7.75049C17.9892 7.75049 17.9343 7.75049 17.8798 7.75049C17.871 7.75229 17.8617 7.75481 17.8528 7.75805C17.4888 7.80703 17.21 8.08795 17.21 8.42648C17.21 8.617 17.2983 8.78915 17.4404 8.91232C17.532 8.993 17.649 9.05314 17.7834 9.08339C17.8439 9.09708 17.9061 9.10392 17.9662 9.1032C17.967 9.1032 17.9678 9.1032 17.9686 9.1032C18.3871 9.1032 18.7261 8.80032 18.7261 8.42684C18.7261 8.0793 18.4331 7.79335 18.0546 7.75553Z" fill="white"/>
<path d="M25.311 12.349C25.0362 12.3115 24.9131 12.1466 24.9527 11.8815C25.6173 11.8815 26.2868 11.8815 27.0002 11.8815C26.9684 11.4756 26.9571 11.0892 26.8998 10.7078C26.8493 10.3735 26.702 10.0645 26.4151 9.82684C26.0652 9.5362 25.6322 9.47714 25.1803 9.49479C24.2998 9.53008 23.7731 9.88014 23.5576 10.5828C23.3821 11.154 23.3829 11.7345 23.5536 12.3083C23.7162 12.8571 24.1085 13.2093 24.7469 13.3232C25.3155 13.4247 25.8788 13.4027 26.4385 13.2763C26.7609 13.2039 26.7609 13.2047 26.7609 12.9086C26.7609 12.6828 26.7609 12.4563 26.7609 12.22C26.6213 12.2424 26.5015 12.2622 26.3816 12.2805C26.0269 12.3331 25.6714 12.3994 25.311 12.349ZM24.9882 10.5353C24.9963 10.4787 25.0322 10.4182 25.0758 10.3739C25.2122 10.2316 25.462 10.2702 25.5043 10.4521C25.5564 10.6753 25.564 10.9069 25.5935 11.1457C25.3494 11.1453 25.1496 11.1453 24.9228 11.1453C24.9442 10.9361 24.9599 10.7348 24.9882 10.5353Z" fill="white"/>
<path d="M23.0072 10.8625C22.9802 10.5762 22.9197 10.2974 22.7776 10.0377C22.6489 9.80041 22.4576 9.61962 22.1659 9.54795C21.7183 9.43774 21.291 9.477 20.9008 9.72046C20.8644 9.74315 20.8281 9.76476 20.774 9.79897C20.6635 9.53786 20.427 9.54291 20.1829 9.56019C20.1465 9.56308 20.1102 9.56055 20.0735 9.56055C19.8378 9.56055 19.6022 9.56055 19.3516 9.56055C19.3516 9.61782 19.3516 9.66176 19.3516 9.70533C19.3516 11.3166 19.3516 12.9279 19.3516 14.5392C19.3516 14.5799 19.3548 14.6217 19.3576 14.6617C19.8592 14.6617 20.3604 14.6617 20.8624 14.6617C20.8624 14.2158 20.8624 13.7689 20.8624 13.3317C21.0864 13.3511 21.2982 13.3853 21.5101 13.3842C22.2369 13.3781 22.6727 13.0799 22.8894 12.4597C22.8983 12.4327 22.9076 12.4057 22.9148 12.3773C23.0593 11.8777 23.0573 11.371 23.0072 10.8625ZM21.4576 12.128C21.389 12.4244 21.1921 12.5073 20.8588 12.3982C20.8588 12.3168 20.8588 12.2328 20.8588 12.1482C20.8588 11.6645 20.862 11.1809 20.8564 10.6979C20.8556 10.6133 20.8887 10.5704 20.9722 10.5466C21.0194 10.533 21.065 10.5149 21.1134 10.5023C21.3196 10.449 21.4536 10.5095 21.4806 10.6979C21.5525 11.174 21.5678 11.6537 21.4576 12.128Z" fill="white"/>
</svg>
