<svg width="36" height="22" viewBox="0 0 36 22" fill="none" xmlns="http://www.w3.org/2000/svg">
<rect width="36" height="22" rx="2" fill="white"/>
<path d="M21.4611 8H19.8112C19.7141 8 19.6171 8.09705 19.5685 8.19411L18.8892 12.4645C18.8892 12.5615 18.9377 12.61 19.0347 12.61H19.9082C20.0053 12.61 20.0538 12.5615 20.0538 12.4645L20.2479 11.2513C20.2479 11.1542 20.345 11.0572 20.4905 11.0572H21.0243C22.1405 11.0572 22.7713 10.5234 22.9169 9.4558C23.0139 9.01906 22.9169 8.63085 22.7228 8.38822C22.4316 8.14558 21.9949 8 21.4611 8ZM21.6552 9.60139C21.5581 10.1837 21.1214 10.1837 20.6847 10.1837H20.3935L20.5876 9.06759C20.5876 9.01906 20.6361 8.97054 20.7332 8.97054H20.8302C21.1214 8.97054 21.4126 8.97054 21.5581 9.16464C21.6552 9.21317 21.6552 9.35875 21.6552 9.60139Z" fill="#139AD6"/>
<path d="M9.57192 8H7.92201C7.82496 8 7.7279 8.09705 7.67938 8.19411L7 12.4645C7 12.5615 7.04853 12.61 7.14558 12.61H7.92201C8.01906 12.61 8.11612 12.513 8.16464 12.4159L8.35875 11.2513C8.35875 11.1542 8.45581 11.0572 8.60139 11.0572H9.13518C10.2513 11.0572 10.8821 10.5234 11.0277 9.4558C11.1248 9.01906 11.0277 8.63085 10.8336 8.38822C10.5425 8.14558 10.1542 8 9.57192 8ZM9.76603 9.60139C9.66898 10.1837 9.23223 10.1837 8.79549 10.1837H8.55286L8.74697 9.06759C8.74697 9.01906 8.79549 8.97054 8.89255 8.97054H8.9896C9.28076 8.97054 9.57192 8.97054 9.7175 9.16464C9.76603 9.21317 9.81456 9.35875 9.76603 9.60139Z" fill="#263B80"/>
<path d="M14.5702 9.55286H13.7938C13.7452 9.55286 13.6482 9.60139 13.6482 9.64992L13.5997 9.89255L13.5511 9.7955C13.357 9.55286 13.0173 9.45581 12.6291 9.45581C11.7556 9.45581 10.9792 10.1352 10.8336 11.0572C10.7366 11.5425 10.8821 11.9792 11.1248 12.2704C11.3674 12.5615 11.7071 12.6586 12.1438 12.6586C12.8717 12.6586 13.26 12.2218 13.26 12.2218L13.2114 12.4645C13.2114 12.5615 13.26 12.6101 13.357 12.6101H14.0849C14.182 12.6101 14.279 12.513 14.3276 12.4159L14.7643 9.69844C14.7158 9.64992 14.6187 9.55286 14.5702 9.55286ZM13.4541 11.1057C13.357 11.5425 13.0173 11.8822 12.5321 11.8822C12.2894 11.8822 12.0953 11.7851 11.9983 11.688C11.9012 11.5425 11.8527 11.3484 11.8527 11.1057C11.9012 10.669 12.2894 10.3293 12.7262 10.3293C12.9688 10.3293 13.1144 10.4263 13.26 10.5234C13.4055 10.669 13.4541 10.9116 13.4541 11.1057Z" fill="#263B80"/>
<path d="M26.4105 9.55311H25.6341C25.5856 9.55311 25.4885 9.60163 25.4885 9.65016L25.44 9.8928L25.3915 9.79574C25.1973 9.55311 24.8577 9.45605 24.4694 9.45605C23.596 9.45605 22.8195 10.1354 22.674 11.0574C22.5769 11.5427 22.7225 11.9795 22.9651 12.2706C23.2077 12.5618 23.5474 12.6588 23.9842 12.6588C24.7121 12.6588 25.1003 12.2221 25.1003 12.2221L25.0518 12.4647C25.0518 12.5618 25.1003 12.6103 25.1974 12.6103H25.9253C26.0223 12.6103 26.1194 12.5132 26.1679 12.4162L26.6046 9.69869C26.5561 9.65016 26.5076 9.55311 26.4105 9.55311ZM25.2944 11.106C25.1973 11.5427 24.8577 11.8824 24.3724 11.8824C24.1298 11.8824 23.9357 11.7853 23.8386 11.6883C23.7415 11.5427 23.693 11.3486 23.693 11.106C23.7415 10.6692 24.1298 10.3295 24.5665 10.3295C24.8091 10.3295 24.9547 10.4266 25.1003 10.5236C25.2944 10.6692 25.3429 10.9119 25.2944 11.106Z" fill="#139AD6"/>
<path d="M18.7917 9.55273H17.9668C17.8697 9.55273 17.8212 9.60126 17.7727 9.64979L16.7051 11.2997L16.2198 9.74684C16.1713 9.64979 16.1228 9.60126 15.9772 9.60126H15.2008C15.1037 9.60126 15.0552 9.69831 15.0552 9.79537L15.9287 12.3673L15.1037 13.5319C15.0552 13.629 15.1037 13.7746 15.2008 13.7746H15.9772C16.0742 13.7746 16.1228 13.726 16.1713 13.6775L18.8403 9.8439C18.9858 9.69832 18.8888 9.55273 18.7917 9.55273Z" fill="#263B80"/>
<path d="M27.3327 8.14563L26.6533 12.513C26.6533 12.6101 26.7018 12.6586 26.7989 12.6586H27.4783C27.5753 12.6586 27.6724 12.5616 27.7209 12.4645L28.4003 8.19416C28.4003 8.0971 28.3518 8.04858 28.2547 8.04858H27.4783C27.4297 8.00005 27.3812 8.04858 27.3327 8.14563Z" fill="#139AD6"/>
</svg>
