<svg width="24" height="20" viewBox="0 0 24 20" fill="none" xmlns="http://www.w3.org/2000/svg">
<path d="M23.1535 10.6812L19.8078 5.25377C19.7336 5.12978 19.6096 5.03065 19.4856 4.95637L18.1226 4.33672L15.5948 3.19683C15.7683 2.42862 15.3717 1.88325 15.0497 1.63556C15.0746 0.817641 14.5292 0.421108 14.2318 0.321975C14.1821 0.297123 14.1327 0.272271 14.083 0.247695C13.4633 0.0742815 12.6209 0 11.7535 0C10.8119 0 9.91968 0.099136 9.27517 0.297402C9.22547 0.322254 9.15119 0.347106 9.12634 0.371682C9.10148 0.371682 9.07692 0.371682 9.07692 0.371682C8.77952 0.495667 8.28385 0.892197 8.28385 1.58613C7.9616 1.78439 7.61477 2.28006 7.76333 3.1474L5.18588 4.28729L3.82286 4.90694C3.67403 4.98122 3.5749 5.08036 3.50061 5.20434L0.154956 10.6812C0.0309712 10.8546 -0.0184576 11.0778 0.00611855 11.3009L0.452076 16.0096C0.476928 16.1581 0.526361 16.3318 0.650347 16.4309L0.848601 17.4471C0.873453 17.5711 0.997438 17.6702 1.12115 17.6454C1.12115 17.6454 2.28589 17.4968 3.27721 17.6454C3.30207 17.6454 3.30208 17.6454 3.32693 17.6454C3.45092 17.6454 3.55004 17.5711 3.57462 17.4471L3.79773 16.5052C3.94657 16.3318 4.04544 16.0838 4.04544 15.861L4.14457 10.3593L4.88821 10.4584C4.86335 11.524 4.78907 16.0593 5.11132 18.7856C5.16102 19.1572 5.21045 19.5043 5.28473 19.8017C5.30958 19.9257 5.43329 20 5.55728 20C5.58213 20 8.25873 19.7523 11.6787 19.7523C15.0738 19.7523 17.7752 20 17.8001 20H17.8249C17.9489 20 18.048 19.9257 18.0729 19.8017C18.1472 19.5043 18.1969 19.1575 18.2463 18.7856C18.5934 16.0347 18.4943 11.5243 18.4694 10.4584L19.1882 10.3593L19.2873 15.861C19.2873 16.109 19.3865 16.3318 19.5353 16.5301L19.7584 17.4717C19.7833 17.5957 19.8824 17.67 20.0064 17.67C20.0312 17.67 20.0312 17.67 20.0561 17.67C21.0474 17.5214 22.1873 17.67 22.2122 17.67C22.3362 17.6948 22.4601 17.5957 22.4847 17.4717L22.683 16.4555C22.7821 16.3315 22.8564 16.183 22.8812 16.0341L23.3272 11.3255C23.3269 11.0778 23.2772 10.8795 23.1535 10.6812ZM11.7532 0.520241C12.5711 0.520241 13.3642 0.594522 13.9341 0.743359C13.6119 1.04076 12.5463 2.08151 11.8275 3.3951C11.0593 2.13122 10.0183 1.23902 9.42347 0.792788C10.0185 0.619374 10.861 0.520241 11.7532 0.520241ZM7.93674 3.66764C8.03588 3.79163 8.2093 3.91561 8.5067 4.01475C8.53155 4.01475 8.5564 4.0396 8.58097 4.0396C8.68011 4.0396 8.77923 3.96532 8.80409 3.86619C8.85379 3.7422 8.77924 3.59364 8.65553 3.54393C8.38299 3.4448 8.28385 3.34567 8.28385 3.32082C8.28385 3.32082 8.28385 3.32082 8.28385 3.29596C8.28385 3.29596 8.28385 3.29596 8.28385 3.27111C8.01131 2.27978 8.55639 2.03209 8.63068 2.00723C8.72981 1.95781 8.80409 1.85867 8.77951 1.73469C8.72981 1.38758 8.85379 1.16474 9.00263 1.04076C9.02748 1.09046 9.07692 1.13989 9.12662 1.16474C9.64714 1.56128 10.8367 2.57746 11.6298 4.01475C11.6298 4.01475 11.6298 4.01474 11.6298 4.0396C11.7289 4.18816 11.8032 4.36185 11.8778 4.53527C11.9272 4.6344 12.0018 4.68383 12.1009 4.68383C12.1257 4.68383 12.1752 4.68383 12.2 4.65897C12.324 4.60927 12.3734 4.46071 12.324 4.33672C12.2497 4.18816 12.2 4.03932 12.1257 3.91534C12.7948 2.52748 13.935 1.41216 14.2818 1.11476C14.3067 1.08991 14.3315 1.06506 14.3561 1.04048C14.4801 1.18904 14.5792 1.41216 14.5295 1.75926C14.5295 1.8584 14.5792 1.95753 14.6535 2.00696C14.7278 2.05666 15.2977 2.42834 15.05 3.22141C15.0003 3.27111 14.9757 3.29569 14.9509 3.32054C14.8269 3.44453 14.7775 3.49395 14.6038 3.54366C14.4798 3.56851 14.3807 3.71707 14.4304 3.84106C14.4552 3.96504 14.5544 4.03932 14.6783 4.03932C14.7032 4.03932 14.7278 4.03932 14.7526 4.03932C15.05 3.96504 15.174 3.84106 15.3226 3.69222L15.3474 3.66737L17.7018 4.70812C17.4786 5.27807 16.9335 6.83935 17.107 8.42547C17.2309 9.4168 17.4538 10.061 17.8009 10.3338C17.8506 10.3587 17.9 10.4081 17.9249 10.4081C17.9497 11.3498 18.024 15.7365 17.7266 18.4873C17.4789 18.4625 17.0575 18.4379 16.4876 18.3882C16.4876 18.3633 16.5124 18.3385 16.5124 18.2891V15.885C16.5124 15.7365 16.4133 15.6373 16.2647 15.6373C15.2734 15.6373 14.4804 14.8443 14.4804 13.8529C14.4804 13.5058 14.2078 13.2333 13.8607 13.2333H9.82111C9.47428 13.2333 9.20145 13.5058 9.20145 13.8529C9.20145 14.8443 8.40838 15.6373 7.41705 15.6373C7.26849 15.6373 7.16936 15.7365 7.16936 15.885V18.2891C7.16936 18.3139 7.16937 18.3388 7.19422 18.3633C6.45059 18.413 5.90549 18.4625 5.60809 18.4873C5.31069 15.7613 5.38497 11.3746 5.40982 10.4081C5.45953 10.3833 5.48411 10.3584 5.53382 10.3338C5.88064 10.0613 6.12861 9.4168 6.22775 8.42547C6.40116 6.83935 5.88063 5.27807 5.63293 4.70812L7.93674 3.66764ZM16.0408 18.3639C14.9009 18.2896 13.3642 18.2399 11.6544 18.2399C10.1179 18.2399 8.73009 18.2893 7.63963 18.339C7.63963 18.3142 7.63963 18.3142 7.63963 18.2893V16.1333C8.77952 16.0093 9.67171 15.0428 9.67171 13.8532C9.67171 13.7789 9.72141 13.7292 9.79569 13.7292H13.8353C13.9096 13.7292 13.9593 13.7786 13.9593 13.8532C13.9593 15.0179 14.8515 16.0093 15.9914 16.1333V18.2893C16.0408 18.3142 16.0408 18.339 16.0408 18.3639ZM0.576341 10.9538L3.922 5.52632C3.94685 5.47661 3.99629 5.45204 4.04599 5.42718L5.18615 4.90666C5.40927 5.45176 5.90493 6.91418 5.73124 8.37632C5.58268 9.78903 5.21074 9.96244 5.16131 9.9873L4.16997 9.86331V7.70724C4.16997 7.55868 4.07084 7.45955 3.922 7.45955C3.77316 7.45955 3.67403 7.55868 3.67403 7.70724V10.0864L3.57489 15.8607C3.57489 15.935 3.55005 16.0093 3.52547 16.0838C2.45986 15.7864 1.41883 15.9599 1.0223 16.059C1.0223 16.0341 0.997438 16.0096 0.997438 15.9847L0.501778 11.2512C0.501778 11.152 0.526636 11.0281 0.576341 10.9538ZM1.29484 17.1246L1.17085 16.5049C1.54253 16.4058 2.40988 16.2818 3.2775 16.5049L3.12866 17.1246C2.41016 17.0255 1.6668 17.0752 1.29484 17.1246ZM11.6541 19.2561C8.77925 19.2561 6.4249 19.4295 5.70611 19.4792C5.68126 19.3306 5.65641 19.157 5.63184 18.9587C6.40005 18.8844 8.75439 18.711 11.6541 18.711C14.5538 18.711 16.9327 18.8844 17.6763 18.9587C17.6515 19.1321 17.6266 19.3058 17.6021 19.4792C16.8833 19.4295 14.529 19.2561 11.6541 19.2561ZM20.1795 17.1246L20.0307 16.5049C20.898 16.2818 21.7408 16.4058 22.1373 16.5049L22.0133 17.1246C21.6417 17.0752 20.898 17.0255 20.1795 17.1246ZM22.3604 15.9598C22.3604 15.9847 22.3604 16.0093 22.3356 16.0341C21.9142 15.935 20.898 15.7367 19.8324 16.059C19.8076 15.9847 19.7827 15.9104 19.7827 15.8359L19.6836 10.0616V7.68239C19.6836 7.53383 19.5844 7.4347 19.4359 7.4347C19.2871 7.4347 19.1879 7.53383 19.1879 7.68239V9.83846L18.1966 9.96245C18.1472 9.93759 17.7752 9.76418 17.6266 8.35147C17.4532 6.91418 17.9489 5.45176 18.1717 4.88181L19.3116 5.40233C19.3613 5.42719 19.4108 5.45176 19.4356 5.50146L22.7813 10.9289C22.831 11.0281 22.8556 11.1272 22.8556 11.2512L22.3604 15.9598Z" fill="#6A7178"/>
<path d="M10.0931 8.54975C10.2665 8.45061 10.3408 8.20292 10.2419 8.02923C10.2171 7.9798 10.1922 7.95495 10.1428 7.90524C10.1428 7.88039 10.1676 7.85582 10.1676 7.83096V4.36131C10.1676 4.21275 10.0685 4.11334 9.91995 4.11334C9.77111 4.11334 9.67198 4.21247 9.67198 4.36131V7.83096C9.67198 7.85582 9.67197 7.88067 9.69682 7.90524C9.54826 8.02923 9.49855 8.22749 9.59768 8.40091C9.67169 8.59945 9.91966 8.67373 10.0931 8.54975Z" fill="#6A7178"/>
<path d="M13.959 8.54975C14.1325 8.45061 14.207 8.20292 14.1079 8.02923C14.083 7.9798 14.0582 7.95495 14.0087 7.90524C14.0087 7.88039 14.0336 7.85582 14.0336 7.83096V4.36131C14.0336 4.21275 13.9345 4.11334 13.7859 4.11334C13.6373 4.11334 13.5379 4.21247 13.5379 4.36131V7.83096C13.5379 7.85582 13.5379 7.88067 13.5628 7.90524C13.4142 8.02923 13.3645 8.22749 13.4636 8.40091C13.5377 8.59945 13.7608 8.67373 13.959 8.54975Z" fill="#6A7178"/>
</svg>
