<svg width="22" height="20" viewBox="0 0 22 20" fill="none" xmlns="http://www.w3.org/2000/svg">
<path d="M21.6158 10.3654L18.4923 5.29835C18.4229 5.1826 18.3072 5.09005 18.1914 5.0207L16.9189 4.44219L14.559 3.37798C14.7209 2.66077 14.3507 2.15162 14.0501 1.92037C14.0733 1.20316 13.6106 0.832962 13.3329 0.717209C12.9395 0.254454 11.8985 0 10.8804 0C9.79302 0 8.70561 0.277651 8.38155 0.809754C8.1039 0.948709 7.7337 1.31892 7.7337 1.89717C7.43284 2.08227 7.10904 2.54502 7.24774 3.35478L4.84142 4.44219L3.5689 5.0207C3.42995 5.09005 3.33766 5.1826 3.26805 5.29835L0.144519 10.3654C0.0287658 10.5273 -0.0173813 10.7357 0.00582087 10.944L0.422172 15.34C0.445374 15.4787 0.49152 15.6409 0.607273 15.7334L0.792375 16.6821C0.815577 16.7979 0.931331 16.8904 1.04683 16.8672C1.04683 16.8672 2.13424 16.7283 3.05974 16.8672C3.08295 16.8672 3.08295 16.8672 3.10615 16.8672C3.2219 16.8672 3.31445 16.7979 3.3374 16.6821L3.5457 15.803C3.6844 15.6411 3.77695 15.4096 3.77695 15.2016L3.8695 10.0651L4.56376 10.1577C4.58696 11.3376 4.77207 17.4692 4.91076 19.7827C4.91076 19.852 4.93397 19.8985 4.98011 19.9446C5.02626 19.991 5.09586 20.014 5.14201 19.991C5.16521 19.991 7.66409 19.7595 10.857 19.7595C14.0269 19.7595 16.5487 19.991 16.5719 19.991H16.5951C16.6413 19.991 16.7109 19.9678 16.757 19.9446C16.8034 19.8982 16.8264 19.852 16.8264 19.7827C16.9651 17.5383 17.1504 11.3376 17.1734 10.1577L17.8674 10.0651L17.9599 15.2016C17.9599 15.4328 18.0525 15.6411 18.1912 15.8262L18.3995 16.7053C18.4227 16.8211 18.5152 16.8904 18.6307 16.8904C18.6539 16.8904 18.6539 16.8904 18.6771 16.8904C19.6026 16.7515 20.6669 16.8904 20.6901 16.8904C20.8058 16.9136 20.9216 16.8211 20.9445 16.7053L21.1296 15.7566C21.2222 15.6409 21.2915 15.5022 21.3147 15.3632L21.7313 10.9672C21.7777 10.7357 21.7313 10.5273 21.6158 10.3654ZM13.6796 2.24417C13.7028 2.26737 14.3043 2.61437 14.0498 3.37798C14.0034 3.42438 13.9805 3.44733 13.9573 3.47053C13.8415 3.58629 13.7954 3.63244 13.6332 3.67884C13.5175 3.70204 13.4249 3.84074 13.4713 3.95649C13.4945 4.07225 13.5871 4.14159 13.7028 4.14159C13.726 4.14159 13.749 4.14159 13.7722 4.14159C14.0498 4.07224 14.1656 3.95649 14.3043 3.81754L14.3275 3.79434L16.5255 4.76599C16.3172 5.29809 15.8083 6.75571 15.9702 8.23652C15.9702 8.28292 15.9934 8.35227 15.9934 8.39842L11.2965 10.2956V4.32618H11.6206C11.6899 4.32618 11.7593 4.30297 11.8057 4.23363C11.8521 4.18722 11.875 4.11788 11.8521 4.04853L11.6438 2.98432C11.5974 2.79922 11.4819 2.63732 11.2968 2.56797V2.29031C12.2916 2.22097 13.2403 1.92011 13.4487 1.38801C13.5412 1.5267 13.6106 1.71207 13.5874 2.01266C13.5639 2.10521 13.6103 2.19802 13.6796 2.24417ZM16.433 18.5561C15.8315 18.5099 13.7954 18.3478 11.2733 18.3248V10.8053L16.0628 8.8849C16.1785 9.4634 16.3636 9.8336 16.6181 10.0419C16.6642 10.0651 16.6874 10.0881 16.7338 10.1113C16.7106 11.0827 16.5717 15.8257 16.433 18.5561ZM5.02626 10.111C5.07241 10.0878 5.09561 10.0646 5.14201 10.0417C5.39646 9.83335 5.60477 9.3938 5.72052 8.76914L10.8108 10.8053V18.348C8.12685 18.348 5.95203 18.5099 5.30417 18.5793C5.18816 15.7795 5.04946 11.0827 5.02626 10.111ZM10.9263 3.07713C10.9263 3.03072 10.9957 2.98457 11.0421 2.98457C11.0885 2.98457 11.1578 3.03098 11.1578 3.07713L11.2968 3.86368H10.7647L10.9263 3.07713ZM10.8799 0.462499C12.1756 0.462499 13.0086 0.879103 13.0086 1.1565C13.0086 1.43415 12.1756 1.85051 10.8799 1.85051C9.5842 1.85051 8.75124 1.43415 8.75124 1.1565C8.75124 1.1333 8.75124 1.1101 8.75124 1.1101C8.75124 1.1101 8.75124 1.08689 8.77444 1.08689C8.8902 0.809757 9.69995 0.462499 10.8799 0.462499ZM7.40938 3.81754C7.50193 3.93329 7.66383 4.04904 7.94148 4.14159C7.96469 4.14159 7.98763 4.16479 8.01083 4.16479C8.10339 4.16479 8.19594 4.09545 8.21914 4.0029C8.26554 3.88714 8.19594 3.74845 8.08044 3.70204C7.82599 3.60949 7.73344 3.51694 7.73344 3.49373C7.73344 3.49373 7.73344 3.49374 7.73344 3.47053C7.73344 3.47053 7.73344 3.47053 7.73344 3.44733C7.47899 2.52182 7.98789 2.29058 8.0575 2.26737C8.15005 2.22097 8.21939 2.12868 8.19619 2.01292C8.14979 1.75847 8.24234 1.57336 8.33489 1.43441C8.61254 1.98972 9.69995 2.29057 10.8106 2.29057V2.56823C10.6255 2.63757 10.5097 2.79947 10.4636 2.98457L10.2553 4.04879C10.2321 4.11813 10.2553 4.18748 10.3014 4.23388C10.3476 4.28029 10.4172 4.32644 10.4865 4.32644H10.8106V10.2958L5.78987 8.28292C5.78987 8.25972 5.78987 8.25972 5.78987 8.25972C5.95177 6.77891 5.46581 5.32129 5.23456 4.78919L7.40938 3.81754ZM0.537666 10.5967L3.6612 5.5296C3.6844 5.48319 3.73055 5.46025 3.77695 5.43705L4.84116 4.95109C5.04946 5.46025 5.51222 6.82532 5.35006 8.19038C5.21136 9.50929 4.8641 9.67119 4.81796 9.69439L3.89244 9.57864V8.95398C3.89244 8.81503 3.79989 8.72248 3.6612 8.72248C3.52224 8.72248 3.42969 8.81503 3.42969 8.95398V9.76374L3.33714 15.1546C3.33714 15.224 3.31394 15.2936 3.29073 15.3629C2.29588 15.0853 1.32396 15.2472 0.95376 15.3397C0.95376 15.3165 0.930557 15.2933 0.930557 15.2704L0.467802 10.8976C0.46806 10.805 0.491262 10.6892 0.537666 10.5967ZM1.20847 16.3581L1.09271 15.7796C1.43972 15.687 2.24947 15.5712 3.05949 15.7796L2.92079 16.3581C2.24973 16.2885 1.55573 16.3349 1.20847 16.3581ZM5.35006 19.0188C5.95151 18.9724 8.12659 18.7876 10.8338 18.7876V19.2735C8.21914 19.2735 6.06752 19.4354 5.37326 19.4818C5.35006 19.3658 5.35006 19.2039 5.35006 19.0188ZM11.2733 19.2965V18.8105C13.8183 18.8337 15.8313 18.9956 16.4098 19.042C16.4098 19.2039 16.3866 19.3658 16.3866 19.5048C15.7387 19.4352 13.7258 19.2965 11.2733 19.2965ZM18.8393 16.3581L18.7006 15.7796C19.5104 15.5712 20.2972 15.687 20.6674 15.7796L20.5516 16.3581C20.2044 16.3349 19.5104 16.2885 18.8393 16.3581ZM20.8754 15.2936C20.8754 15.3168 20.8754 15.34 20.8522 15.3629C20.4588 15.2704 19.5104 15.0853 18.5152 15.3861C18.492 15.3168 18.4688 15.2474 18.4688 15.1778L18.3531 9.76374V8.93078C18.3531 8.79208 18.2605 8.69953 18.1216 8.69953C17.9829 8.69953 17.8903 8.79208 17.8903 8.93078V9.55544L16.9648 9.67119C16.9187 9.64799 16.5714 9.48608 16.4327 8.16717C16.2708 6.82531 16.7336 5.46025 16.9419 4.92788L18.0061 5.41384C18.0525 5.43705 18.0986 5.46025 18.1218 5.5064L21.2454 10.5735C21.2918 10.666 21.3147 10.7586 21.3147 10.8744L20.8754 15.2936Z" fill="#6A7178"/>
<path d="M9.42231 8.37546C9.58421 8.28291 9.65356 8.0514 9.56101 7.8895C9.53781 7.8431 9.51486 7.82015 9.46846 7.77375C9.46846 7.75055 9.49166 7.72735 9.49166 7.7044V3.77111C9.49166 3.63216 9.39911 3.53961 9.26016 3.53961C9.12146 3.53961 9.02891 3.63216 9.02891 3.77111V7.7044C9.02891 7.72761 9.02891 7.7508 9.05211 7.77375C8.91315 7.8895 8.86701 8.07461 8.95956 8.23651C9.02891 8.42187 9.26041 8.46801 9.42231 8.37546Z" fill="#6A7178"/>
<path d="M13.0551 7.79724C13.0551 7.77404 13.0783 7.7511 13.0783 7.7279V3.7946C13.0783 3.65591 12.9857 3.56335 12.847 3.56335C12.7083 3.56335 12.6158 3.65591 12.6158 3.7946V7.7279C12.6158 7.7511 12.6158 7.77429 12.639 7.79724C12.5003 7.91299 12.4539 8.0981 12.5464 8.26C12.639 8.4219 12.8705 8.49124 13.0324 8.39869C13.1943 8.30614 13.2636 8.07463 13.1711 7.91273C13.1244 7.84339 13.1012 7.82018 13.0551 7.79724Z" fill="#6A7178"/>
<path d="M15.2301 14.1368C15.2069 14.0211 15.0911 13.9285 14.9756 13.9285C14.8599 13.9517 14.7673 14.0672 14.7673 14.183C14.7673 14.2523 14.9756 15.8257 15.5309 17.1214C15.5773 17.214 15.6467 17.2604 15.7392 17.2604C15.7624 17.2604 15.8086 17.2604 15.8318 17.2372C15.9476 17.191 15.9937 17.0521 15.9476 16.9363C15.4384 15.7102 15.2301 14.16 15.2301 14.1368Z" fill="#6A7178"/>
<path d="M6.76142 13.9285C6.64567 13.9053 6.53018 13.9979 6.50697 14.1368C6.50697 14.1601 6.29867 15.7102 5.76657 16.9595C5.72016 17.0753 5.76657 17.214 5.88232 17.2604C5.90552 17.2836 5.95167 17.2836 5.97487 17.2836C6.06742 17.2836 6.15997 17.2372 6.18317 17.1449C6.73848 15.826 6.94678 14.2526 6.94678 14.2065C6.96973 14.0672 6.87718 13.9518 6.76142 13.9285Z" fill="#6A7178"/>
</svg>
