<svg width="25" height="20" viewBox="0 0 25 20" fill="none" xmlns="http://www.w3.org/2000/svg">
<path d="M24.5217 8.63531L20.9784 2.88731C20.8997 2.756 20.7684 2.65101 20.6371 2.57234L19.1936 1.9161L16.3589 0.656246C16.3589 0.629926 16.3589 0.603606 16.3326 0.577578C16.3063 0.49891 16.2276 0.44627 16.175 0.44627L14.5739 0C14.5475 0 14.4952 0 14.4689 0C12.0805 0.367603 10.322 0 10.2957 0C10.2431 0 10.217 0 10.1644 0L8.56324 0.44627C8.48458 0.47259 8.43194 0.524938 8.40562 0.577578C8.40562 0.603898 8.40562 0.630218 8.3793 0.656246L5.5183 1.94242L4.07481 2.59866C3.91718 2.67733 3.81248 2.78232 3.73352 2.91363L0.163937 8.63531C0.0326292 8.84528 -0.0197168 9.08158 0.00660322 9.37022L0.400236 15.8268C0.400236 15.9581 0.531545 16.0631 0.66256 16.0631H3.9435C4.0748 16.0631 4.20582 15.9581 4.20582 15.8008L4.38947 8.268L5.17702 8.37299V19.7377C5.17702 19.895 5.28201 20 5.43935 20H19.2451C19.4024 20 19.5074 19.895 19.5074 19.7377V8.37269L20.2947 8.2677C20.3997 10.9447 20.557 15.6168 20.557 15.8268C20.557 15.9842 20.662 16.0891 20.8196 16.0891H23.9166C23.9429 16.0891 23.9953 16.0891 24.0216 16.0628L24.0479 16.0365C24.0742 16.0365 24.0742 16.0102 24.1005 16.0102L24.1269 15.9839C24.1269 15.9575 24.1532 15.9575 24.1532 15.9315C24.1532 15.9052 24.1532 15.9052 24.1532 15.8792C24.1532 15.8528 24.1532 15.8528 24.1532 15.8268L24.6781 9.31758C24.7053 9.08158 24.653 8.84528 24.5217 8.63531ZM20.5321 3.17595L24.0754 8.92395C24.128 9.02894 24.1541 9.13393 24.1541 9.26523L23.7865 14.3046H21.0305C20.9518 12.0999 20.8205 8.24168 20.7942 7.97935V5.72197C20.7942 5.56464 20.6892 5.45965 20.5318 5.45965C20.3745 5.45965 20.2692 5.56464 20.2692 5.72197V7.74306L19.2193 7.87437C19.167 7.84805 18.7731 7.66439 18.6157 6.16824C18.4321 4.64607 18.957 3.09728 19.1933 2.49368L20.4005 3.04493C20.4535 3.09728 20.5061 3.1236 20.5321 3.17595ZM21.0571 14.8293H23.7341L23.6815 15.5905H21.0831C21.0834 15.3805 21.0571 15.1442 21.0571 14.8293ZM14.6268 0.577578L15.703 0.866221C15.4407 1.41748 14.8631 2.59837 14.4431 3.43827L12.842 2.49338C13.3143 2.17871 14.0755 1.57481 14.6268 0.577578ZM13.9969 0.577578C13.4196 1.46983 12.6847 1.96874 12.3434 2.15239C12.0284 1.96874 11.2672 1.47012 10.7162 0.577578C11.0838 0.630218 11.6085 0.656246 12.2647 0.656246C12.7897 0.682566 13.3669 0.656246 13.9969 0.577578ZM10.086 0.577578C10.6373 1.60113 11.3982 2.20474 11.8708 2.49368L10.2697 3.43857C9.84971 2.59866 9.27243 1.39145 9.00981 0.866513L10.086 0.577578ZM0.611082 8.92395L4.15435 3.17595C4.18067 3.1236 4.23301 3.09728 4.28565 3.07096L5.49316 2.5197C5.72945 3.09728 6.25439 4.64578 6.07044 6.19427C5.91281 7.69042 5.51918 7.87407 5.46684 7.90039L4.41696 7.76909V5.748C4.41696 5.59067 4.31197 5.48568 4.15464 5.48568C3.9973 5.48568 3.89231 5.59067 3.89231 5.748V8.00509L3.73468 14.3304H0.847676L0.532715 9.34361C0.506102 9.10761 0.558735 9.00262 0.611082 8.92395ZM0.899725 15.5642L0.847382 14.803H3.68205V15.5379L0.899725 15.5642ZM5.70284 8.34666C5.75548 8.32034 5.78151 8.29403 5.83415 8.268C6.20175 7.97935 6.46408 7.29679 6.56906 6.24691C6.75272 4.56711 6.20146 2.91363 5.93914 2.31002L8.53751 1.15516C8.82615 1.78508 9.4824 3.1236 9.90235 3.93718C9.92867 3.98982 9.98102 4.04217 10.0597 4.06849C10.086 4.06849 10.1123 4.06849 10.1383 4.06849C10.1907 4.06849 10.2433 4.06849 10.2697 4.04217L11.2146 3.49091V19.5014H5.70284V8.34666ZM11.7658 19.4751V3.17595L12.3431 2.83467L14.4165 4.04188C14.4692 4.0682 14.4952 4.0682 14.5478 4.0682C14.5742 4.0682 14.6005 4.0682 14.6265 4.0682C14.7052 4.04188 14.7578 3.98953 14.7838 3.93689C15.2038 3.12331 15.86 1.78479 16.1487 1.15486L18.7207 2.30973C18.4844 2.91333 17.9071 4.56682 18.0908 6.24662C18.2221 7.29649 18.4581 7.97877 18.8257 8.2677C18.8784 8.29403 18.9044 8.32034 18.957 8.34637V19.4748H11.7658V19.4751Z" fill="#6A7178"/>
</svg>
