<svg width="25" height="10" viewBox="0 0 25 10" fill="none" xmlns="http://www.w3.org/2000/svg">
<path d="M8.26618 10C6.98335 10 5.92634 9.98421 5.2697 9.94452C0.229315 9.64125 0.144152 8.80273 0.116021 8.52721C0.109085 8.46285 0.0979119 8.38423 0.0851954 8.29483C0.016603 7.81584 -0.0870565 7.09176 0.133749 6.45439L0.135675 6.45516C0.342223 5.90449 1.5187 3.66022 6.95754 3.66022C7.58604 3.63902 12.5154 1.35929 14.1355 0.610551C14.9439 0.236375 15.1235 0.154302 15.1882 0.133108L15.241 0.113833C15.4287 0.0429288 15.8198 -0.103891 16.2021 0.116914C16.5119 0.295332 16.7073 0.651016 16.8002 1.20399C17.0298 2.57854 18.1836 3.53844 19.6063 3.53844C19.6074 3.53844 19.6082 3.53844 19.6094 3.53844C20.9828 3.53767 22.0355 1.95505 22.0459 1.93886C22.0918 1.87297 22.3095 1.58895 22.6567 1.62017C22.832 1.63443 23.0802 1.73462 23.2679 2.12961C23.6525 2.93615 24.2112 6.45825 24.0925 7.29947C23.9923 9.64625 23.5176 9.70058 23.2891 9.72717C23.2744 9.7291 23.2602 9.72987 23.2455 9.72987C23.1118 9.72987 22.4806 9.74567 21.5261 9.76995C18.4549 9.84548 12.265 10 8.26618 10ZM0.875162 8.38731C1.07824 8.56187 2.18112 8.98691 5.31556 9.17534C7.98642 9.33604 17.4603 9.09982 21.5061 8.99847C22.2598 8.97959 22.8143 8.96612 23.0852 8.96072C23.1881 8.69676 23.2933 7.95572 23.323 7.24552C23.3234 7.22857 23.3253 7.212 23.3284 7.19581C23.4286 6.61625 22.9419 3.32188 22.5912 2.5034C22.2629 2.94617 21.1334 4.30799 19.6097 4.30877C19.6086 4.30877 19.6071 4.30877 19.6059 4.30877C17.799 4.30877 16.3327 3.08451 16.0399 1.33078C15.9663 0.890322 15.8414 0.797836 15.8171 0.783963C15.7501 0.745043 15.6009 0.801299 15.5119 0.834825C15.4803 0.846771 15.4518 0.857565 15.4275 0.865272C15.3728 0.886851 14.9493 1.08299 14.4584 1.30957C9.60143 3.5554 7.49818 4.43053 6.95715 4.43053C1.57342 4.43053 0.850887 6.73378 0.845492 6.75728L0.845107 6.7569C0.708307 7.21161 0.791542 7.79465 0.847417 8.18539C0.858593 8.25976 0.86784 8.32758 0.875162 8.38731Z" fill="#6A7178"/>
<path d="M5.9075 8.29715C5.77764 8.29523 5.66319 8.23705 5.57687 8.12915C5.07399 7.50026 5.60731 4.80011 5.71907 4.26562L6.09633 4.34462C5.83352 5.60086 5.5919 7.53109 5.87783 7.88831C5.89633 7.91143 5.90557 7.9118 5.91328 7.9118L5.9075 8.29715Z" fill="#6A7178"/>
<path d="M6.47534 5.47023C6.37129 5.47023 6.26147 5.46985 6.14548 5.46947L5.73315 5.46869V5.08334L6.14663 5.08412C7.95123 5.09105 8.13928 5.09105 10.8641 3.71997C12.96 2.6645 16.323 1.48263 16.3569 1.47107L16.484 1.83445C16.4505 1.84601 13.1107 3.01979 11.0375 4.06371C8.40672 5.38777 8.03292 5.47023 6.47534 5.47023Z" fill="#6A7178"/>
<path d="M20.0227 6.95303C17.2093 6.69407 15.6817 5.67444 15.6181 5.63089C15.0378 5.3334 12.6856 5.9438 11.4221 6.27212C10.8583 6.41855 10.451 6.52413 10.2571 6.54532C9.52074 6.62933 8.41942 5.36538 8.29688 5.22126L8.59051 4.97156C9.00283 5.45594 9.8086 6.20584 10.2155 6.16268C10.3816 6.14457 10.819 6.03088 11.3253 5.89948C13.306 5.38542 15.1388 4.95306 15.8147 5.30065C15.8494 5.32261 17.3511 6.32028 20.0578 6.56922L20.0227 6.95303Z" fill="#6A7178"/>
<path d="M20.8357 6.24173C18.0396 5.99279 16.0774 4.81555 15.9953 4.76545C15.4103 4.47605 13.0701 5.06294 11.8127 5.3797C11.2501 5.52112 10.8435 5.62363 10.6501 5.64405C9.89787 5.73075 9.20116 4.85947 9.17188 4.82248L9.47399 4.58318C9.63699 4.7878 10.1576 5.30532 10.6096 5.261C10.7757 5.24328 11.2127 5.13346 11.7187 5.0063C13.6878 4.51073 15.5101 4.09494 16.1814 4.42903C16.2149 4.44869 18.1675 5.61785 20.87 5.8583L20.8357 6.24173Z" fill="#6A7178"/>
<path d="M19.2695 8.03357C19.268 6.17233 23.288 4.51724 23.4591 4.44788L23.6043 4.80471C22.5053 5.25172 19.6537 6.70296 19.6549 8.03357H19.2695Z" fill="#6A7178"/>
<path d="M10.5288 8.45748C0.915068 8.45748 0.341284 6.81435 0.307373 6.61243L0.684248 6.53381C0.690413 6.55192 1.43183 8.34804 13.1523 8.03514C22.4673 7.7862 23.6257 7.59815 23.7586 7.54651L23.7899 7.62667L23.8014 7.48331C24.0407 7.51491 24.0515 7.66905 24.0492 7.71529C24.0369 7.95613 24.028 8.12993 13.1627 8.42049C12.217 8.44592 11.34 8.45748 10.5288 8.45748Z" fill="#6A7178"/>
<path d="M14.044 1.06922L13.7031 1.24902L14.3387 2.4539L14.6796 2.2741L14.044 1.06922Z" fill="#6A7178"/>
<path d="M12.5955 1.67505L12.2546 1.85486L12.8902 3.05974L13.2311 2.87993L12.5955 1.67505Z" fill="#6A7178"/>
<path d="M11.2549 2.27344L10.9141 2.45325L11.5497 3.65813L11.8905 3.47832L11.2549 2.27344Z" fill="#6A7178"/>
<path d="M9.86745 2.87598L9.52661 3.05579L10.1622 4.26067L10.5031 4.08086L9.86745 2.87598Z" fill="#6A7178"/>
<path d="M8.41506 3.47779L8.07422 3.65759L8.70983 4.86247L9.05067 4.68267L8.41506 3.47779Z" fill="#6A7178"/>
<path d="M7.09788 3.81292L6.75708 3.9928L7.39278 5.1972L7.73359 5.01732L7.09788 3.81292Z" fill="#6A7178"/>
</svg>
