<svg width="19" height="20" viewBox="0 0 19 20" fill="none" xmlns="http://www.w3.org/2000/svg">
<path d="M16.9102 19.9999H1.46036C0.65615 19.9999 0.00213887 19.3459 0.00213887 18.5417V11.9805C-0.00150668 11.9375 -0.0860848 10.3597 1.29594 8.88541C2.82889 7.25075 5.48504 6.42175 9.19111 6.42175C12.8972 6.42175 15.5515 7.25038 17.0804 8.88577C18.4595 10.36 18.3702 11.9386 18.3659 12.0053L18.3684 18.5421C18.3684 19.3459 17.714 19.9999 16.9102 19.9999ZM9.19111 7.15086C5.74388 7.15086 3.19782 7.92298 1.82783 9.38412C0.659429 10.6305 0.72979 11.944 0.73052 11.9571L0.731248 18.5417C0.731248 18.9435 1.05825 19.2708 1.46036 19.2708H16.9102C17.3123 19.2708 17.6393 18.9435 17.6393 18.5417L17.6375 11.9805C17.6415 11.9032 17.702 10.6057 16.5332 9.36772C15.164 7.91715 12.6252 7.15086 9.19111 7.15086Z" fill="#6A7178"/>
<path d="M5.33108 7.39515C5.13239 7.39515 4.9698 7.23547 4.96652 7.03642C4.96215 6.75535 4.91221 0.158729 9.33535 0.00269991C10.3328 -0.033391 11.1807 0.292526 11.8457 0.969869C13.667 2.82582 13.4789 6.6992 13.4701 6.86289C13.4596 7.06412 13.2908 7.22016 13.0866 7.20704C12.8858 7.19647 12.7315 7.02476 12.7421 6.82353C12.7439 6.78634 12.9211 3.10507 11.3244 1.47952C10.8019 0.947635 10.16 0.702648 9.36123 0.730719C5.64423 0.861959 5.69454 6.96315 5.69563 7.02476C5.69855 7.22636 5.53778 7.39186 5.33655 7.39515C5.33509 7.39515 5.33326 7.39515 5.33108 7.39515Z" fill="#6A7178"/>
<path d="M10.5108 12.2644H7.85573C5.68772 12.2644 4.23169 9.82522 4.23169 7.54675H4.59624C4.59624 9.64914 5.90609 11.8999 7.85573 11.8999H10.5108C12.4608 11.8999 13.7703 9.64878 13.7703 7.54675H14.1348C14.1348 9.82522 12.6788 12.2644 10.5108 12.2644Z" fill="#6A7178"/>
<path d="M18.0036 18.2392H0.36465C0.264033 18.2392 0.182373 18.1575 0.182373 18.0569C0.182373 17.9563 0.264033 17.8746 0.36465 17.8746H18.0036C18.1042 17.8746 18.1859 17.9563 18.1859 18.0569C18.1859 18.1575 18.1042 18.2392 18.0036 18.2392Z" fill="#6A7178"/>
</svg>
