<svg width="13" height="20" viewBox="0 0 13 20" fill="none" xmlns="http://www.w3.org/2000/svg">
<path d="M10.2488 20C7.82247 20 7.71984 19.8971 7.62079 19.7974C7.52696 19.7022 7.42205 19.5957 6.32017 9.30994C5.32776 19.5429 5.30104 19.6279 5.28899 19.6657C5.20623 19.9257 5.18896 19.9798 2.52679 19.9798C0.199227 19.9798 0.16795 19.9186 0.0636918 19.7166C-0.0630473 19.4715 0.0382796 10.6545 0.0395828 10.5653C0.113215 4.52057 0.259177 1.13804 0.473558 0.510864C0.490826 0.460038 0.543932 0.3056 0.69641 0.2349C1.06131 0.0658058 2.20555 0 4.77845 0L6.39445 0.00293314L8.04402 0C11.2096 0 11.9413 0.0928543 12.1844 0.263903C12.3828 0.404 12.5395 0.514448 12.7018 10.0801C12.7672 13.9455 12.823 19.4745 12.7982 19.6217C12.7474 19.9202 12.7337 20 10.2488 20ZM8.12384 19.2901C8.45355 19.3213 9.23484 19.3484 10.2488 19.3484C11.1636 19.3484 11.838 19.3262 12.1599 19.2998C12.1811 17.1505 11.9908 2.34711 11.7312 0.774439C11.3708 0.696245 10.1276 0.652261 8.04402 0.652261L6.39445 0.655194L4.77845 0.652261C2.71511 0.652261 1.46955 0.700481 1.06816 0.795617C0.714006 2.27348 0.584008 17.0498 0.662202 19.2891C0.95217 19.3093 1.5523 19.3288 2.52679 19.3288C3.52767 19.3288 4.32362 19.308 4.68364 19.2835C4.83612 17.8513 5.57863 10.2141 5.98068 6.0548C5.99697 5.88831 6.13642 5.76125 6.30356 5.7606C6.30388 5.7606 6.30453 5.7606 6.30486 5.7606C6.47134 5.7606 6.61144 5.88636 6.62903 6.05219C7.13827 10.8722 7.92216 18.05 8.12384 19.2901Z" fill="#6A7178"/>
<path d="M0.880575 3.90545C0.703336 3.90545 0.529354 3.87156 0.361563 3.79629C0.279786 3.75948 0.242969 3.66272 0.280111 3.58094C0.317253 3.49884 0.413367 3.46202 0.495797 3.49916C1.7469 4.06379 3.65841 1.54921 3.67763 1.52347C3.73139 1.45146 3.83369 1.4368 3.90569 1.49121C3.9777 1.5453 3.99204 1.64727 3.93828 1.71927C3.86269 1.81897 2.27633 3.90545 0.880575 3.90545Z" fill="#6A7178"/>
<path d="M11.8033 3.90547C10.4072 3.90547 8.82153 1.81932 8.74627 1.7193C8.69218 1.6473 8.70684 1.54532 8.77884 1.49124C8.85085 1.43683 8.95282 1.45182 9.00691 1.52349C9.02613 1.54891 10.936 4.06381 12.1884 3.49919C12.2708 3.46139 12.3666 3.49886 12.4041 3.58097C12.4409 3.66275 12.4044 3.7595 12.3223 3.79632C12.1549 3.87158 11.9806 3.90547 11.8033 3.90547Z" fill="#6A7178"/>
<path d="M6.36166 0.296945L6.03589 0.301147L6.11048 6.08299L6.43626 6.07879L6.36166 0.296945Z" fill="#6A7178"/>
<path d="M7.06361 0.995986C7.06361 1.14097 6.94567 1.25859 6.80036 1.25859C6.65635 1.25859 6.53906 1.1413 6.53906 0.995986C6.53906 0.851328 6.65603 0.733704 6.80036 0.733704C6.94567 0.734029 7.06361 0.851328 7.06361 0.995986Z" fill="#6A7178"/>
<path d="M12.0344 1.35992H0.648438V1.68573H12.0344V1.35992Z" fill="#6A7178"/>
<path d="M2.70978 1.68573C2.61986 1.68573 2.54688 1.61275 2.54688 1.52283V0.505982C2.54688 0.416059 2.61986 0.343079 2.70978 0.343079C2.7997 0.343079 2.87268 0.416059 2.87268 0.505982V1.52283C2.87268 1.61275 2.7997 1.68573 2.70978 1.68573Z" fill="#6A7178"/>
<path d="M9.75397 1.68573C9.66405 1.68573 9.59106 1.61275 9.59106 1.52283V0.505982C9.59106 0.416059 9.66405 0.343079 9.75397 0.343079C9.84389 0.343079 9.91687 0.416059 9.91687 0.505982V1.52283C9.91687 1.61275 9.84389 1.68573 9.75397 1.68573Z" fill="#6A7178"/>
</svg>
