<svg width="16" height="15" viewBox="0 0 16 15" fill="none" xmlns="http://www.w3.org/2000/svg">
<path d="M14.7013 10.265H14.0792V6.86002C14.0792 3.42021 11.3072 0.622083 7.90005 0.622083C4.44375 0.622083 1.52369 3.47869 1.52369 6.86002V10.265H0.901611V6.86002C0.901611 3.14152 4.10659 0 7.90005 0C11.6503 0 14.7013 3.07744 14.7013 6.86002V10.265Z" fill="#6A7178"/>
<path d="M14.4781 15H1.06003C0.47558 15 0 14.5244 0 13.94V11.2641C0 10.7608 0.427682 9.79816 1.09798 9.79816H14.3897C15.0529 9.79816 15.5375 10.7624 15.5375 11.2641V13.94C15.5378 14.5241 15.0625 15 14.4781 15ZM1.09829 10.4199C0.938415 10.4199 0.622397 10.9325 0.622397 11.2638V13.9397C0.622397 14.181 0.818972 14.3776 1.06034 14.3776H14.4784C14.7197 14.3776 14.916 14.181 14.916 13.9397V11.2638C14.916 10.9412 14.562 10.4199 14.3904 10.4199H1.09829Z" fill="#6A7178"/>
<path d="M8.83572 13.5359H6.96387C6.87802 13.5359 6.80835 13.4663 6.80835 13.3804V11.6212C6.80835 11.5353 6.87802 11.4656 6.96387 11.4656H8.83572C8.92157 11.4656 8.99124 11.5353 8.99124 11.6212V13.3804C8.99124 13.4663 8.92188 13.5359 8.83572 13.5359ZM7.11939 13.2249H8.6802V11.7767H7.11939V13.2249Z" fill="#6A7178"/>
</svg>
