<svg width="23" height="20" viewBox="0 0 23 20" fill="none" xmlns="http://www.w3.org/2000/svg">
<path d="M21.9472 5.35461C21.9422 5.34925 21.9369 5.344 21.9315 5.33892L17.3765 1.29045C17.3349 1.25256 17.2864 1.22317 17.2336 1.20385L13.9385 0.0261131C13.7137 -0.0555058 13.4654 0.0605901 13.3838 0.285367C13.369 0.325905 13.3605 0.368393 13.3583 0.411475C13.3583 0.506733 13.2154 2.702 11.0202 2.73664C8.81191 2.702 8.67335 0.506733 8.66902 0.411475C8.65625 0.172681 8.45231 -0.0105288 8.21351 0.00224445C8.17249 0.00446353 8.13195 0.0124739 8.09314 0.0261131L4.80241 1.21684C4.74958 1.23616 4.70109 1.26555 4.65952 1.30344L0.134763 5.33892C-0.0385959 5.50361 -0.045632 5.7777 0.119067 5.95106C0.124155 5.95642 0.129405 5.96167 0.134763 5.96675L3.73725 9.60821V19.567C3.73725 19.8061 3.93112 20 4.17024 20H17.8961C18.1352 20 18.3291 19.8061 18.3291 19.567V9.60821L21.9315 5.96675C22.1049 5.80205 22.1119 5.52803 21.9472 5.35461ZM18.3161 8.37418V6.3651C18.3161 6.12599 18.1222 5.93211 17.8831 5.93211C17.644 5.93211 17.4501 6.12599 17.4501 6.3651V19.1124H4.58591V6.3651C4.58591 6.12599 4.39204 5.93211 4.15292 5.93211C3.9138 5.93211 3.71993 6.12599 3.71993 6.3651V8.37852L1.05703 5.68098L5.17911 1.99189L7.88964 1.01333C8.22542 2.74346 9.90018 3.87384 11.6303 3.53805C12.908 3.29006 13.907 2.29104 14.155 1.01333L16.8655 1.99189L20.9746 5.68098L18.3161 8.37418Z" fill="#6A7178"/>
</svg>
