<svg width="14" height="20" viewBox="0 0 14 20" fill="none" xmlns="http://www.w3.org/2000/svg">
<path d="M12.2562 20H1.08862C0.489443 20 0.00162949 19.5125 0.00162949 18.9133V8.89973C-0.00281324 8.78392 -0.0881137 5.79307 1.87765 3.75445C3.03216 2.55699 4.64695 1.94983 6.67668 1.94983C8.70612 1.94983 10.32 2.55699 11.4731 3.75445C13.4361 5.79337 13.3464 8.78452 13.3417 8.91099L13.3431 18.913C13.3428 19.5128 12.8553 20 12.2562 20ZM6.67668 2.54248C4.81607 2.54248 3.34582 3.08774 2.30711 4.16259C0.516097 6.01669 0.592809 8.86093 0.593697 8.88966L0.593993 18.9136C0.593993 19.1861 0.815835 19.408 1.08862 19.408H12.2562C12.5286 19.408 12.7505 19.1861 12.7505 18.9136L12.7493 8.90004C12.7505 8.86064 12.8313 6.0164 11.043 4.1623C10.0061 3.08716 8.537 2.54248 6.67668 2.54248Z" fill="#6A7178"/>
<path d="M6.89793 18.7862C3.1379 18.7862 0.320622 18.456 0.278564 18.4507L0.313809 18.1569C0.376599 18.164 6.68291 18.9024 13.0289 18.1569L13.0636 18.4507C10.9257 18.7024 8.79172 18.7862 6.89793 18.7862Z" fill="#6A7178"/>
<path d="M0.331948 11.5414L0.262939 10.9531C6.66195 10.2003 13.0189 10.946 13.0826 10.9531L13.0121 11.5414C12.9487 11.5337 6.65899 10.7977 0.331948 11.5414Z" fill="#6A7178"/>
<path d="M10.8562 17.3488H2.50622C1.9888 17.3488 1.56763 16.9274 1.56763 16.4096V13.2808C1.56763 12.7633 1.9885 12.3422 2.50622 12.3422H10.8562C11.3739 12.3422 11.7948 12.7633 11.7948 13.2808V16.4096C11.7948 16.9274 11.3739 17.3488 10.8562 17.3488ZM2.50622 12.6381C2.15199 12.6381 1.86381 12.9262 1.86381 13.2805V16.4093C1.86381 16.7639 2.15199 17.0523 2.50622 17.0523H10.8562C11.2104 17.0523 11.4986 16.7639 11.4986 16.4093V13.2805C11.4986 12.9262 11.2104 12.6381 10.8562 12.6381H2.50622Z" fill="#6A7178"/>
<path d="M11.6446 13.6763H1.71362V13.9725H11.6446V13.6763Z" fill="#6A7178"/>
<path d="M10.837 16.6898H8.63013V15.3398H10.837V16.6898ZM8.92631 16.3937H10.5408V15.636H8.92631V16.3937Z" fill="#6A7178"/>
<path d="M2.81784 15.0096C2.56372 15.0096 2.35669 14.8029 2.35669 14.5487L2.36883 14.4901L2.81784 13.4508L3.2787 14.5487C3.2787 14.8029 3.07197 15.0096 2.81784 15.0096ZM2.65524 14.5751C2.66768 14.6536 2.7358 14.7137 2.81814 14.7137C2.90018 14.7137 2.9683 14.6536 2.98074 14.5751L2.81814 14.1981L2.65524 14.5751Z" fill="#6A7178"/>
<path d="M4.7449 2.27439C4.74046 2.23293 4.64864 1.25346 5.22946 0.587347C5.55052 0.218897 6.00397 0.0219389 6.57649 0.00179853C7.1345 -0.0192304 7.60188 0.144272 7.95522 0.48577C8.61423 1.12197 8.62103 2.14822 8.62103 2.19176L8.02867 2.19118C8.02867 2.18408 8.01949 1.36897 7.54175 0.909886C7.30569 0.682715 6.9947 0.57936 6.59752 0.593873C6.18968 0.608386 5.88816 0.733662 5.6761 0.976827C5.26885 1.44391 5.33371 2.20688 5.3346 2.21458L4.7449 2.27439Z" fill="#6A7178"/>
</svg>
