<svg width="27" height="20" viewBox="0 0 27 20" fill="none" xmlns="http://www.w3.org/2000/svg">
<path d="M26.1993 9.4152L22.4272 3.24559C22.3396 3.0993 22.1933 2.98234 22.047 2.92403L20.4972 2.22226L15.9064 0.175605C15.7894 0.0879656 15.6431 0 15.4972 0C15.4678 0 15.4385 0 15.4095 0C15.1756 0 14.971 0.116964 14.8247 0.292569C14.4445 0.467847 13.8304 0.672771 13.1873 0.672771C12.5442 0.672771 11.93 0.468173 11.5498 0.292569C11.4035 0.116964 11.1989 0 10.965 0C10.9357 0 10.9064 0 10.8774 0C10.7311 0.0293217 10.5851 0.0876397 10.4678 0.175605L5.87737 2.22226L4.32756 2.92403C4.18128 2.98267 4.03532 3.0993 3.94735 3.24559L0.175287 9.38588C0.0583257 9.59048 0 9.85372 0 10.0876L0.526168 15.4092C0.55549 15.5845 0.613804 15.7601 0.730765 15.9064L0.964683 17.0467C0.994005 17.1929 1.13996 17.2806 1.28624 17.2806C1.28624 17.2806 2.60214 17.105 3.7131 17.2806C3.74243 17.2806 3.74243 17.2806 3.77143 17.2806C3.88839 17.2806 4.00534 17.1929 4.03467 17.076L4.26859 15.994C4.44387 15.7894 4.53183 15.5262 4.53183 15.2629L4.6488 9.035L5.46752 9.15195C5.4382 10.3509 5.35056 15.4968 5.73076 18.5965C5.7894 19.035 5.84773 19.4152 5.90605 19.7661C5.93537 19.883 6.05232 20 6.16929 20H6.19861C6.22793 20 9.26892 19.7078 13.1283 19.7078C16.9877 19.7078 20.029 20 20.058 20C20.2043 20 20.3212 19.9124 20.3506 19.7661C20.4382 19.4152 20.4968 19.035 20.5258 18.5965C20.906 15.4972 20.8184 10.3509 20.7891 9.15195L21.6078 9.035L21.8124 15.2339C21.8124 15.5262 21.9294 15.7894 22.1047 15.994L22.3386 17.076C22.3679 17.1929 22.4849 17.2806 22.6018 17.2806C22.6018 17.2806 22.6311 17.2806 22.6601 17.2806C23.8004 17.1053 25.087 17.2806 25.087 17.2806C25.2333 17.3099 25.3792 17.1929 25.4085 17.0467L25.6425 15.9064C25.7594 15.7601 25.8471 15.6141 25.8471 15.4092L26.3732 10.0876C26.4042 9.85405 26.3455 9.62013 26.1993 9.4152ZM13.1876 1.22826C13.7141 1.22826 14.2109 1.11129 14.5911 0.994332C14.5618 1.11129 14.5035 1.22826 14.4159 1.37454C14.1526 1.78407 13.7724 1.98866 13.1876 1.98866C12.6321 1.98866 12.2226 1.78406 11.9597 1.34554C11.872 1.22858 11.8134 1.0823 11.7844 0.965339C12.1643 1.1113 12.6614 1.22826 13.1876 1.22826ZM10.9363 0.555817C11.0533 0.555817 11.1409 0.614461 11.1409 0.731422C11.1409 0.731422 11.1996 1.19926 11.4918 1.6671C11.872 2.25191 12.4275 2.57347 13.1876 2.57347C13.9477 2.57347 14.5328 2.28123 14.9127 1.6671C15.2053 1.19926 15.2343 0.760742 15.2636 0.760742C15.2636 0.673103 15.3512 0.585455 15.4392 0.585455C15.4392 0.585455 15.4392 0.585455 15.4685 0.585455C15.5561 0.585455 15.6441 0.702423 15.6441 0.790063C15.6441 0.819384 15.5855 1.34554 15.2639 1.87203C14.9717 2.36919 14.3575 2.954 13.2462 2.954C12.1353 2.954 11.5211 2.36919 11.2286 1.87203C10.907 1.34554 10.8484 0.819384 10.8484 0.790063C10.7607 0.672776 10.8194 0.555817 10.9363 0.555817ZM3.53848 16.6961C2.71976 16.6085 1.87171 16.6668 1.46251 16.6961L1.31622 15.9943C1.75474 15.9067 2.71975 15.7311 3.68476 15.9943L3.53848 16.6961ZM5.61445 8.56747L4.70809 8.45052V7.22259C4.70809 7.0763 4.59113 6.93035 4.41585 6.93035C4.26957 6.93035 4.12361 7.04731 4.12361 7.22259V8.68444L4.00665 15.2049C4.00665 15.2926 3.97733 15.3802 3.94801 15.4682C2.72008 15.1173 1.55047 15.3512 1.11162 15.4388C1.11162 15.4095 1.0823 15.3802 1.0823 15.3512L0.556135 10.059C0.556135 9.94201 0.585461 9.79573 0.643778 9.70809L4.41585 3.53848C4.44517 3.47984 4.50349 3.45084 4.53282 3.42152L6.08263 2.71976L10.2346 0.907017C10.2639 1.11162 10.3809 1.60879 10.7024 2.13495C10.7317 2.19359 10.7901 2.25191 10.8194 2.31055C7.31055 3.77208 5.90702 7.57314 5.61445 8.56747ZM19.9127 19.3569C19.094 19.2982 16.4332 19.0936 13.1876 19.0936C9.94201 19.0936 7.28123 19.2982 6.4625 19.3569C6.43318 19.1813 6.40386 18.9767 6.37487 18.7721C7.22292 18.7138 9.91301 18.5088 13.1876 18.5088C16.4625 18.5088 19.1526 18.7134 20.0003 18.7721C19.9713 19.006 19.942 19.1813 19.9127 19.3569ZM20.0883 18.2456C19.2402 18.1869 16.5211 17.9534 13.1876 17.9534C9.85437 17.9534 7.13494 18.158 6.2869 18.2456C5.90669 14.9124 6.05298 9.4152 6.0823 8.91803C6.19926 8.53783 7.48583 4.15195 11.1993 2.74842C11.7257 3.21627 12.3982 3.47952 13.1876 3.47952C13.977 3.47952 14.6495 3.21627 15.1759 2.74842C18.6848 4.06431 20.059 8.01167 20.2929 8.80107C20.2929 8.83039 20.4392 14.9124 20.0883 18.2456ZM24.9127 16.6961C24.5035 16.6668 23.6554 16.6085 22.8367 16.6961L22.6904 15.9943C23.6554 15.7311 24.6201 15.8774 25.059 15.9943L24.9127 16.6961ZM25.2929 15.3802C25.2929 15.4095 25.2929 15.4389 25.2636 15.4679C24.7957 15.3509 23.6261 15.1463 22.4272 15.4972C22.3979 15.4095 22.3685 15.3219 22.3685 15.2339L22.2516 8.68411V7.22226C22.2516 7.07598 22.1346 6.93002 21.9593 6.93002C21.8131 6.93002 21.6671 7.04698 21.6671 7.22226V8.45019L20.7901 8.56715C20.4685 7.54383 19.094 3.74242 15.5561 2.3099C15.5855 2.25125 15.6438 2.19295 15.6731 2.1343C15.9947 1.60814 16.1116 1.11097 16.1409 0.90637L20.2346 2.74842L21.7844 3.45018C21.8427 3.47951 21.872 3.50883 21.9013 3.56715L25.6734 9.70744C25.7321 9.8244 25.7611 9.94136 25.7611 10.0583L25.2929 15.3802Z" fill="#6A7178"/>
</svg>
