<svg width="19" height="20" viewBox="0 0 19 20" fill="none" xmlns="http://www.w3.org/2000/svg">
<path d="M16.9826 11.2829C17.7087 11.2829 18.2995 10.6922 18.2995 9.96603C18.2995 9.30753 17.8136 8.76034 17.1815 8.66416C17.1704 8.3532 17.1418 8.04286 17.0958 7.73623L17.6201 7.75615C17.624 7.7563 17.6277 7.7563 17.6315 7.7563C17.79 7.7563 17.9214 7.63093 17.9274 7.47128L17.997 5.6301C18.0001 5.55151 17.9717 5.47508 17.9183 5.41749C17.8648 5.35975 17.7907 5.32578 17.7121 5.32269L16.3076 5.26958C16.156 4.97051 15.9847 4.67963 15.7973 4.40078C16.0527 4.16039 16.2126 3.81963 16.2126 3.44213C16.2126 2.716 15.6219 2.12512 14.8956 2.12512C14.5485 2.12512 14.2326 2.26038 13.997 2.4807C13.3149 1.95405 12.5619 1.54258 11.7523 1.25479V0.296288C11.7523 0.132627 11.6198 0 11.4561 0H7.5281C7.36444 0 7.23181 0.132627 7.23181 0.296288V0.975173C6.12988 1.21989 5.07843 1.69744 4.16487 2.36845C3.94979 2.2156 3.68716 2.12528 3.40369 2.12528C2.67756 2.12528 2.08683 2.716 2.08683 3.44213C2.08683 3.7324 2.18148 4.0009 2.34113 4.2189C2.10073 4.55611 1.88565 4.91184 1.69945 5.28069L0.587327 5.32284C0.508739 5.32578 0.434628 5.35975 0.381207 5.41749C0.327785 5.47508 0.299376 5.55151 0.302464 5.6301L0.372097 7.47128C0.375031 7.54987 0.409153 7.62398 0.466743 7.6774C0.521708 7.7282 0.593503 7.7563 0.668077 7.7563C0.671937 7.7563 0.675642 7.7563 0.679348 7.75615L0.912796 7.74734C0.869411 8.03005 0.844553 8.31321 0.831583 8.65366C0.830503 8.6833 0.829885 8.71325 0.828959 8.74321C0.343688 8.93744 0 9.41221 0 9.96603C0 10.6363 0.503489 11.1907 1.15196 11.2722C1.19581 11.4334 1.24475 11.5932 1.29848 11.7507C1.25973 11.8029 1.2378 11.8681 1.24043 11.938L1.31021 13.7792C1.31624 13.9388 1.44747 14.0642 1.60604 14.0642C1.60975 14.0642 1.61361 14.0642 1.61747 14.064L2.521 14.0299C2.72032 14.2878 2.93679 14.5339 3.16715 14.7655C3.08161 14.9399 3.03329 15.136 3.03329 15.3431C3.03329 16.0692 3.62401 16.6601 4.3503 16.6601C4.7102 16.6601 5.03659 16.5148 5.27467 16.28C5.53885 16.4107 5.81151 16.5278 6.08989 16.6298C6.06966 16.7695 6.05901 16.9108 6.05901 17.0526C6.05901 18.6777 7.38127 20 9.00645 20C10.6316 20 11.9539 18.6777 11.9539 17.0526C11.9539 16.9017 11.9423 16.7536 11.9204 16.6088C12.2599 16.4791 12.5914 16.3263 12.9113 16.1523C13.1525 16.4611 13.528 16.6601 13.9492 16.6601C14.6753 16.6601 15.266 16.0694 15.266 15.3432C15.266 15.0409 15.1635 14.7624 14.9917 14.5399C15.1481 14.3721 15.2969 14.1968 15.4385 14.0171L16.682 14.064C16.6859 14.0642 16.6896 14.0644 16.6934 14.0644C16.8518 14.0644 16.9832 13.939 16.9893 13.7793L17.0589 11.938C17.0651 11.7745 16.9375 11.6369 16.774 11.6307L16.7424 11.6297C16.7827 11.5128 16.8202 11.3951 16.8551 11.2767C16.8971 11.2807 16.9395 11.2829 16.9826 11.2829ZM17.7069 9.96603C17.7069 10.3655 17.382 10.6905 16.9826 10.6905C16.5832 10.6905 16.2582 10.3655 16.2582 9.96603C16.2582 9.56661 16.5832 9.2416 16.9826 9.2416C17.382 9.2416 17.7069 9.56661 17.7069 9.96603ZM17.3465 7.15276L16.0973 7.10552L16.1447 5.85644L17.3938 5.90369L17.3465 7.15276ZM14.8956 2.7177C15.2951 2.7177 15.6201 3.04271 15.6201 3.44213C15.6201 3.84156 15.2951 4.16656 14.8956 4.16656C14.4964 4.16656 14.1713 3.84156 14.1713 3.44213C14.1713 3.04271 14.4964 2.7177 14.8956 2.7177ZM3.40384 2.7177C3.80327 2.7177 4.12827 3.04271 4.12827 3.44213C4.12827 3.84156 3.80327 4.16656 3.40384 4.16656C3.00442 4.16656 2.67941 3.84156 2.67941 3.44213C2.67941 3.04271 3.00442 2.7177 3.40384 2.7177ZM2.15492 5.85644L2.20217 7.10552L1.25865 7.14134L0.953094 7.15276L0.905694 5.90369L2.15492 5.85644ZM0.592577 9.96603C0.592577 9.56661 0.917583 9.2416 1.31701 9.2416C1.71628 9.2416 2.04129 9.56661 2.04129 9.96603C2.04129 10.3655 1.71628 10.6905 1.31701 10.6905C0.917583 10.6905 0.592577 10.3655 0.592577 9.96603ZM1.84381 12.2116L3.09304 12.1643L3.14029 13.4136L1.89106 13.4608L1.84381 12.2116ZM4.3503 16.0675C3.95087 16.0675 3.62586 15.7425 3.62586 15.3431C3.62586 14.9436 3.95087 14.6188 4.3503 14.6188C4.74972 14.6188 5.07473 14.9436 5.07473 15.3431C5.07473 15.7425 4.74972 16.0675 4.3503 16.0675ZM13.9492 16.0675C13.5497 16.0675 13.2249 15.7425 13.2249 15.3431C13.2249 14.9436 13.5497 14.6188 13.9492 14.6188C14.3486 14.6188 14.6736 14.9436 14.6736 15.3431C14.6736 15.7425 14.3486 16.0675 13.9492 16.0675ZM16.4084 13.4608L15.1593 13.4136L15.2066 12.1643L16.4557 12.2116L16.4084 13.4608ZM16.1212 11.606L14.9328 11.5611C14.8549 11.5582 14.7778 11.5864 14.7202 11.6399C14.6626 11.6933 14.6287 11.7674 14.6256 11.8458L14.556 13.6872C14.5515 13.8056 14.6172 13.9101 14.7161 13.9612C14.656 14.0296 14.5949 14.0968 14.5326 14.1629C14.3566 14.0755 14.1587 14.0262 13.9492 14.0262C13.223 14.0262 12.6323 14.6169 12.6323 15.3431C12.6323 15.4362 12.6422 15.5268 12.6606 15.6143C12.3734 15.7724 12.0759 15.9119 11.7712 16.0312C11.3548 14.908 10.2728 14.1053 9.00645 14.1053C8.55438 14.1053 8.12037 14.205 7.71662 14.4017C7.56963 14.4734 7.50849 14.6508 7.58013 14.7979C7.65177 14.945 7.82917 15.006 7.97632 14.9344C8.29839 14.7774 8.64501 14.6978 9.00645 14.6978C10.1017 14.6978 11.0247 15.4493 11.2869 16.4638C11.2891 16.4776 11.2922 16.4912 11.2963 16.5048C11.3385 16.6806 11.3615 16.864 11.3615 17.0527C11.3615 18.3512 10.3051 19.4076 9.00661 19.4076C7.70813 19.4076 6.65174 18.3512 6.65174 17.0527C6.65174 16.8767 6.6715 16.7018 6.7101 16.5313C6.71057 16.5302 6.71103 16.5293 6.71149 16.5281C6.71736 16.5102 6.72137 16.4922 6.72369 16.4742C6.77202 16.283 6.84397 16.0984 6.93846 15.9255C7.01689 15.7819 6.96409 15.6018 6.8205 15.5234C6.67691 15.445 6.49688 15.4978 6.41845 15.6414C6.3465 15.7732 6.28489 15.9105 6.2341 16.0516C6.01609 15.9698 5.80209 15.8777 5.59366 15.7766C5.64121 15.6407 5.6673 15.495 5.6673 15.3432C5.6673 14.6171 5.07658 14.0262 4.35045 14.0262C4.0466 14.0262 3.76667 14.13 3.54357 14.3035C3.44784 14.2056 3.35505 14.105 3.26504 14.0018L3.45881 13.9944C3.62231 13.9882 3.74985 13.8507 3.74367 13.6872L3.67404 11.846C3.67095 11.7674 3.63698 11.6933 3.57939 11.6399C3.5218 11.5864 3.44522 11.5582 3.36663 11.5611L1.87917 11.6175C1.83223 11.4831 1.78946 11.3468 1.75009 11.2095C2.26408 11.03 2.63386 10.5405 2.63386 9.96603C2.63386 9.27619 2.10057 8.70893 1.42478 8.65396C1.43883 8.29777 1.46616 8.01785 1.5168 7.72449L2.52069 7.68667C2.59912 7.68358 2.67339 7.64961 2.72681 7.59202C2.78023 7.53428 2.80849 7.45785 2.80555 7.37926L2.73592 5.53807C2.72974 5.37457 2.59171 5.24734 2.42867 5.25321L2.38497 5.25491C2.50973 5.03273 2.64575 4.81673 2.79227 4.60799C2.97508 4.70433 3.18321 4.75929 3.40384 4.75929C4.12997 4.75929 4.72085 4.16842 4.72085 3.44229C4.72085 3.21486 4.66295 3.00086 4.56105 2.81389C5.36222 2.23459 6.27486 1.81463 7.23197 1.58427V1.8997C7.23197 2.06336 7.36459 2.19599 7.52825 2.19599H8.75031C8.91382 2.19599 9.04644 2.06336 9.04644 1.8997C9.04644 1.73604 8.91397 1.60342 8.75031 1.60342H7.82454V1.22159C7.82454 1.22128 7.82454 1.22097 7.82454 1.22066V0.592577H11.16V1.46245V1.46291V1.60326H9.95646C9.7928 1.60326 9.66017 1.73604 9.66017 1.89955C9.66017 2.06321 9.7928 2.19584 9.95646 2.19584H11.4563C11.6199 2.19584 11.7524 2.06321 11.7524 1.89955V1.88704C12.4396 2.15338 13.081 2.51729 13.6655 2.97323C13.6097 3.11898 13.5789 3.27708 13.5789 3.44213C13.5789 4.16842 14.1697 4.75914 14.8958 4.75914C15.0312 4.75914 15.162 4.73845 15.285 4.70031C15.4221 4.90211 15.5495 5.11101 15.6667 5.32501C15.6066 5.37688 15.5671 5.45238 15.5639 5.53807L15.4942 7.37926C15.4911 7.4577 15.5195 7.53428 15.573 7.59187C15.6264 7.64946 15.7005 7.68358 15.7791 7.68651L16.4926 7.71353C16.5469 8.04163 16.5795 8.37481 16.5904 8.70878C16.0553 8.87614 15.6658 9.37654 15.6658 9.96603C15.6658 10.4396 15.9171 10.8554 16.2932 11.0874C16.2423 11.2622 16.1845 11.4354 16.1212 11.606Z" fill="#6A7178"/>
</svg>
