<svg width="15" height="20" viewBox="0 0 15 20" fill="none" xmlns="http://www.w3.org/2000/svg">
<path d="M14.9736 18.8634L12.1146 12.3357C12.0281 12.1379 11.7977 12.048 11.6001 12.1346C11.4025 12.2211 11.3125 12.4515 11.399 12.6491L13.7932 18.1154C13.5996 18.0658 13.3985 18.0403 13.1934 18.0403C12.5518 18.0403 11.9484 18.2903 11.4946 18.744C11.1886 19.0501 10.7813 19.2188 10.3484 19.2188C9.91536 19.2188 9.50826 19.0501 9.20201 18.744C8.26543 17.8073 6.74123 17.8073 5.80464 18.744C5.4984 19.0501 5.09129 19.2188 4.65825 19.2188C4.22536 19.2188 3.81825 19.0501 3.51201 18.744C3.05821 18.2903 2.45503 18.0403 1.8134 18.0403C1.60832 18.0403 1.40721 18.0658 1.21358 18.1154L5.67357 7.93243V10.2466C5.67357 10.4623 5.84843 10.6372 6.06419 10.6372C6.27995 10.6372 6.45482 10.4623 6.45482 10.2466V7.34375H9.07536L10.0625 9.59747C10.1267 9.74396 10.2701 9.83139 10.4206 9.83139C10.4729 9.83139 10.526 9.82086 10.577 9.79858C10.7746 9.71207 10.8648 9.48166 10.7781 9.28406L9.81877 7.09351C10.7166 6.43005 11.3212 5.43869 11.4954 4.32632L12.0318 0.901184C12.067 0.675507 12.0022 0.446625 11.8537 0.273132C11.7051 0.0994873 11.489 0 11.2606 0C10.9478 0 10.6662 0.185852 10.5431 0.47348C10.1421 1.41083 9.47362 2.19269 8.60997 2.73453L7.50325 3.42865L6.39653 2.73453C5.53288 2.19269 4.8644 1.41083 4.4634 0.47348C4.34041 0.185852 4.05873 0 3.74593 0C3.5175 0 3.30144 0.0994873 3.15297 0.27298C3.0045 0.446625 2.93965 0.675507 2.9749 0.901031L3.51125 4.32632C3.68535 5.43869 4.29006 6.43005 5.18788 7.09351L0.0328529 18.8634C-0.0425255 19.0355 0.0153053 19.2369 0.170487 19.3428C0.325669 19.4487 0.534104 19.4292 0.666856 19.2964C1.29903 18.6642 2.32747 18.6642 2.95949 19.2964C3.41329 19.7501 4.01662 20 4.65825 20C5.29988 20 5.90321 19.7502 6.35701 19.2964C6.6631 18.9902 7.07021 18.8216 7.50325 18.8216C7.9363 18.8216 8.3434 18.9902 8.64964 19.2964C9.10329 19.7501 9.70662 20 10.3483 20C10.99 20 11.5932 19.7501 12.047 19.2964C12.3531 18.9902 12.7602 18.8216 13.1933 18.8216C13.6263 18.8216 14.0334 18.9902 14.3396 19.2964C14.4724 19.4292 14.681 19.4487 14.836 19.3428C14.9912 19.2369 15.049 19.0355 14.9736 18.8634ZM4.28319 4.20547L3.74501 0.78064C4.20888 1.86508 4.98235 2.76962 5.98134 3.3963L7.24614 4.18976C7.31755 4.25049 7.40804 4.28284 7.49989 4.28284H7.50325C7.59541 4.28314 7.68819 4.25125 7.76036 4.18976L9.02516 3.3963C10.0243 2.76962 10.7976 1.86508 11.2598 0.780182L10.7235 4.20547C10.5724 5.16983 10.0252 6.0231 9.2159 6.5625H5.79076C4.98128 6.02295 4.4341 5.16983 4.28319 4.20547Z" fill="#6A7178"/>
</svg>
