<svg width="20" height="20" viewBox="0 0 20 20" fill="none" xmlns="http://www.w3.org/2000/svg">
<path d="M0.716141 18.0494C0.785453 18.154 0.86111 18.255 0.939696 18.354C0.952387 18.3699 0.962963 18.3873 0.975653 18.4026C1.06791 18.5152 1.16634 18.6245 1.27096 18.7292C1.37477 18.833 1.48378 18.9316 1.59751 19.0243C1.61378 19.0373 1.63086 19.0484 1.64713 19.0611C1.74703 19.1393 1.8471 19.215 1.95041 19.284L1.95773 19.2882C3.40336 20.2373 5.27445 20.2373 6.72007 19.2882L6.7274 19.284C6.83169 19.215 6.93191 19.1393 7.03051 19.0611C7.04695 19.0484 7.06387 19.0373 7.0803 19.0243C7.11154 18.9988 7.14083 18.969 7.17158 18.9425C7.95792 19.6234 8.96327 19.9983 10.0036 19.9981H10.0106C11.1612 19.9999 12.2652 19.5432 13.0785 18.7292L13.4807 18.327L13.4773 18.3237L16.3347 15.466L17.9841 13.8165C18.4229 13.3801 18.6689 12.7862 18.6673 12.1675V4.60338C19.0651 4.4628 19.3317 4.08745 19.3337 3.66539V0.999652C19.3337 0.447598 18.8861 0 18.334 0H5.33856C4.78634 0 4.3389 0.447598 4.3389 0.999652V3.66539C4.34053 4.08745 4.60737 4.46297 5.00534 4.6037V8.1692C5.00648 8.61126 4.83076 9.03527 4.51739 9.34701L1.67316 12.1911L1.27096 12.5933C1.16634 12.6979 1.06791 12.8072 0.975653 12.9198C0.962963 12.9358 0.952387 12.9532 0.939696 12.9685C0.86111 13.0685 0.785453 13.1684 0.716141 13.2731L0.713375 13.2771C-0.237792 14.7242 -0.237792 16.5982 0.713375 18.0453L0.716141 18.0494ZM0.682787 15.3026C0.686854 15.2619 0.694827 15.2221 0.700196 15.1817C0.710121 15.1044 0.719069 15.0272 0.733387 14.9509C0.742499 14.9038 0.756166 14.8581 0.766742 14.8116C0.782687 14.7449 0.797493 14.6756 0.817343 14.6089C0.832149 14.5596 0.850697 14.5119 0.867455 14.4636C0.88877 14.4014 0.909108 14.3383 0.934001 14.2774C0.953688 14.2284 0.97728 14.1814 1.00071 14.1334C1.02772 14.0752 1.05326 14.0161 1.08336 13.9592C1.10826 13.9115 1.13657 13.8658 1.1639 13.8192C1.19726 13.7643 1.22719 13.7086 1.26217 13.6552C1.29195 13.61 1.32498 13.5662 1.35654 13.522C1.39413 13.4699 1.4309 13.418 1.47125 13.3677C1.50444 13.325 1.54284 13.2841 1.57945 13.2425C1.61085 13.2067 1.64241 13.171 1.67544 13.1364L6.11319 17.5735C6.27101 17.8958 6.4687 18.1968 6.70136 18.47C6.68705 18.4819 6.6737 18.4958 6.65906 18.5076C6.64442 18.5193 6.62912 18.5292 6.61432 18.5409C6.53183 18.6075 6.44771 18.6698 6.36082 18.7272L6.35041 18.7336C5.12753 19.531 3.54914 19.531 2.32626 18.7336L2.31682 18.7269C2.22994 18.6694 2.14598 18.6062 2.063 18.5406C2.04836 18.5289 2.03307 18.5193 2.01858 18.5072C1.9234 18.4295 1.83115 18.3463 1.74215 18.2576C1.05115 17.5705 0.663913 16.6357 0.666516 15.6612C0.666516 15.5407 0.673512 15.4209 0.684088 15.3026H0.682787ZM11.0656 19.1746C11.0586 19.1769 11.0516 19.1797 11.0443 19.1816C10.9466 19.2106 10.8479 19.2334 10.7486 19.254C10.7306 19.2576 10.7127 19.2627 10.6946 19.2659C10.6084 19.2827 10.521 19.2933 10.4341 19.3037C10.4027 19.3072 10.3715 19.3129 10.3397 19.3155C10.2688 19.3222 10.1975 19.3237 10.1261 19.326C10.0781 19.326 10.0306 19.3313 9.98261 19.331C9.93461 19.3307 9.8806 19.326 9.82967 19.3237C9.76296 19.3203 9.69332 19.3186 9.62531 19.3116C9.60009 19.3089 9.57504 19.3037 9.54966 19.3006C8.17741 19.1279 7.0188 18.1983 6.55281 16.896C6.08683 15.5937 6.39288 14.1401 7.34421 13.1361L12.5314 18.3203C12.1171 18.7161 11.6153 19.009 11.0669 19.1746H11.0656ZM7.81263 12.659L10.6533 9.81787C11.0921 9.3815 11.3381 8.78763 11.3365 8.16887V4.66504H18.0008V10.0016C16.8386 10.0395 15.8037 10.7471 15.3465 11.8162C14.8894 12.8852 15.0928 14.1224 15.8681 14.9888L13.0058 17.8522L7.81263 12.659ZM18.0008 12.1675C18.002 12.6095 17.8262 13.0336 17.5129 13.3453L16.339 14.5194C15.7553 13.8428 15.6094 12.8923 15.9631 12.072C16.3168 11.2515 17.1082 10.7053 18.0008 10.6652V12.1675ZM12.6693 0.666435H18.334C18.5181 0.666435 18.6673 0.815634 18.6673 0.999652V3.66539C18.6673 3.84941 18.5181 3.99861 18.334 3.99861H11.0033C10.8192 3.99861 10.67 3.84941 10.67 3.66539V0.999652C10.67 0.815634 10.8192 0.666435 11.0033 0.666435H12.6693ZM5.00534 0.999652C5.00534 0.815634 5.15454 0.666435 5.33856 0.666435H10.0648C10.0254 0.773169 10.0046 0.885922 10.0036 0.999652V3.66539C10.0046 3.77912 10.0254 3.89188 10.0648 3.99861H5.33856C5.15454 3.99861 5.00534 3.84941 5.00534 3.66539V0.999652ZM4.98858 9.81787C5.42739 9.3815 5.6734 8.78763 5.67177 8.16887V4.66504H10.67V8.16887C10.6712 8.61094 10.4955 9.03494 10.1821 9.34668L6.93566 12.5933C5.98351 13.5469 5.52973 14.8897 5.70806 16.2253L2.14435 12.6623L4.98858 9.81787Z" fill="#6A7178"/>
</svg>
