<svg width="24" height="15" viewBox="0 0 24 15" fill="none" xmlns="http://www.w3.org/2000/svg">
<path d="M22.3176 12.9483H22.279V0.341945C22.279 0.152985 22.126 0 21.937 0H4.3769C4.18794 0 4.03495 0.152985 4.03495 0.341945C4.03495 0.530906 4.18794 0.683891 4.3769 0.683891H7.77908V1.2611H5.69909C5.56676 1.2611 5.44049 1.31079 5.34379 1.40073L2.9263 3.64457C2.71294 3.84225 2.70208 4.17458 2.89692 4.38491L4.15909 5.75822C4.35695 5.97336 4.68964 5.98351 4.90033 5.78582L5.28662 5.42393V10.593C5.28662 10.8821 5.52117 11.1173 5.80951 11.1173H13.9779C13.9811 11.1173 13.9841 11.1173 13.9873 11.1171H17.5343C17.8225 11.1171 18.057 10.8821 18.057 10.5928V7.5C18.057 7.31104 17.904 7.15805 17.7151 7.15805C17.5261 7.15805 17.3731 7.31104 17.3731 7.5V10.4332H13.0828V5.05349C13.0828 4.84405 12.959 4.65526 12.7674 4.57209C12.5766 4.48946 12.3551 4.52793 12.203 4.67022L11.6643 5.17513L10.6197 4.03852L11.5645 3.16139H11.5647L12.8751 1.94499H13.4605C13.6146 2.6987 14.2828 3.26754 15.0812 3.26754H15.3747C16.1733 3.26754 16.8415 2.6987 16.9956 1.94499H17.5808L19.8364 4.03852L18.792 5.17531L18.2529 4.67022C18.101 4.52775 17.8795 4.48928 17.6885 4.57209C17.4969 4.65509 17.3731 4.84405 17.3731 5.05331V6.02964C17.3731 6.2186 17.5261 6.37158 17.7151 6.37158C17.904 6.37158 18.057 6.2186 18.057 6.02964V5.42375L18.4439 5.786C18.6585 5.98707 18.9906 5.96997 19.1853 5.75822L20.4467 4.38509C20.6417 4.17316 20.6286 3.84101 20.4175 3.64492L17.9995 1.40055C17.9026 1.31061 17.7765 1.2611 17.6444 1.2611H15.5754V0.683891H21.5951V12.9483H7.27204C7.08308 12.9483 6.93009 13.1013 6.93009 13.2903C6.93009 13.4792 7.08308 13.6322 7.27204 13.6322H22.3176C22.5062 13.6322 22.6596 13.7856 22.6596 13.9742C22.6596 14.1628 22.5062 14.3161 22.3176 14.3161H1.02584C0.837232 14.3161 0.683891 14.1628 0.683891 13.9742C0.683891 13.7856 0.837232 13.6322 1.02584 13.6322H5.851C6.03997 13.6322 6.19295 13.4792 6.19295 13.2903C6.19295 13.1013 6.03997 12.9483 5.851 12.9483H2.12701V0.683891H2.91793C3.10689 0.683891 3.25988 0.530906 3.25988 0.341945C3.25988 0.152985 3.10689 0 2.91793 0H1.78506C1.59628 0 1.44312 0.152985 1.44312 0.341945V12.9483H1.02584C0.460201 12.9483 0 13.4085 0 13.9742C0 14.5398 0.460201 15 1.02584 15H22.3176C22.8833 15 23.3435 14.5398 23.3435 13.9742C23.3435 13.4085 22.8833 12.9483 22.3176 12.9483ZM8.46297 0.683891H11.3353V1.2611H8.46297V0.683891ZM8.31372 1.94499L7.67453 2.53823C7.38744 2.44633 7.16019 2.22336 7.05779 1.94499H8.31372ZM5.65492 4.57209C5.46418 4.48946 5.24263 4.52793 5.09053 4.6704L4.55197 5.17495L3.50725 4.03834L5.76267 1.94499H6.34878C6.44442 2.40573 6.7349 2.80413 7.13383 3.04011L6.48253 3.64457C6.26918 3.84208 6.25831 4.17458 6.45315 4.38491L7.71532 5.75822C7.91283 5.973 8.24551 5.98386 8.45656 5.78582L8.84285 5.42393V10.4334H5.97051V5.05349C5.97033 4.84405 5.84655 4.65509 5.65492 4.57209ZM10.0092 4.38509L11.2712 5.75822C11.4717 5.97621 11.8049 5.98084 12.0126 5.786L12.3989 5.42393V10.4334H9.52656V5.05349C9.52656 4.84405 9.40278 4.65509 9.21133 4.57209C9.02041 4.48946 8.79886 4.52793 8.64676 4.6704L8.1082 5.17495L7.06366 4.03834L8.0074 3.16228C8.00793 3.16175 8.00847 3.16139 8.009 3.16068L9.3189 1.94499H9.90502C10.0007 2.40573 10.2911 2.80413 10.6902 3.04011L10.0386 3.64475C9.82737 3.84065 9.81419 4.1728 10.0092 4.38509ZM11.2308 2.53823C10.9437 2.44633 10.7164 2.22336 10.614 1.94499H11.8698L11.2308 2.53823ZM15.3747 2.58365H15.0812C14.6627 2.58365 14.3052 2.31721 14.1694 1.94499H16.2866C16.1507 2.31721 15.7932 2.58365 15.3747 2.58365ZM14.8915 1.2611H12.0192V0.683891H14.8915V1.2611Z" fill="#6A7178"/>
</svg>
